<svg xmlns="http://www.w3.org/2000/svg" width="200" height="83.498" version="1.0"><g fill="#737373"><path d="M172.1319 19.9922l5.1524 9.2243 5.9654-9.2243h16.017l-14.396 20.0116L200 63.4888h-15.6528l-7.2535-12.8135-9.1856 12.8136H152.101l17.4281-23.543-13.354-19.9537zM149.8456 19.9922H136.781z"/><path stroke-width=".9245" d="M143.323 67.1554c4.5156 0 8.1797 3.6472 8.1797 8.1629 0 4.5156-3.6665 8.1797-8.1797 8.1797-4.518 0-8.1822-3.6665-8.1822-8.1797-.0024-4.5157 3.6666-8.1629 8.1822-8.1629zM120.6073 46.1597l13.2985 17.3292h-16.4416l-8.2979-12.9873V63.489H96.1211V19.9922h17.0977c5.0752 0 9.1856 1.428 11.8849 4.1297 2.4122 2.4122 3.6303 5.6735 3.6303 9.726 0 5.9822-3.1479 10.6136-8.1267 12.3118zm-3.5507-11.6557c0-1.4666-.3836-2.5473-1.1579-3.3385-1.5438-1.5438-4.5156-1.756-6.7324-1.7754v10.247c5.577-.0579 7.8903-1.5438 7.8903-5.1331z"/><path d="M92.5873 19.9922v11.3663h-9.919v32.1304H69.6811V31.3585h-9.9166V19.9922zM43.2072 63.4889V19.9922H56.25V63.489z"/><path stroke-width=".9245" d="M49.7298 0c4.5156 0 8.1797 3.6665 8.1797 8.1628 0 4.5157-3.6665 8.2015-8.1797 8.2015-4.535 0-8.1822-3.6858-8.1822-8.2015C41.5452 3.6665 45.1924 0 49.7298 0zM39.232 25.9938l-6.87 11.096c-1.9298-3.2033-5.7338-5.2682-9.5716-5.2682-5.483 0-9.4944 4.4578-9.4944 9.9383 0 5.4804 4.0115 9.9213 9.4944 9.9213 3.8378 0 7.6418-2.0648 9.5716-5.2682l6.87 11.1153c-4.149 4.3227-9.977 7.0075-16.4416 7.0075C10.2084 64.5358 0 54.349 0 41.7623c0-12.582 10.2084-22.8097 22.7904-22.8097 6.4647-.0024 12.2925 2.6992 16.4415 7.0412z"/></g><path fill="#737373" d="M149.7406 18.2131v47.0511h-14.109v-47.051z"/></svg>