<?xml version="1.0" encoding="UTF-8" standalone="no"?>
<svg
   xmlns:dc="http://purl.org/dc/elements/1.1/"
   xmlns:cc="http://creativecommons.org/ns#"
   xmlns:rdf="http://www.w3.org/1999/02/22-rdf-syntax-ns#"
   xmlns:svg="http://www.w3.org/2000/svg"
   xmlns="http://www.w3.org/2000/svg"
   xmlns:sodipodi="http://sodipodi.sourceforge.net/DTD/sodipodi-0.dtd"
   xmlns:inkscape="http://www.inkscape.org/namespaces/inkscape"
   version="1.0"
   id="svg38898"
   x="0px"
   y="0px"
   width="200"
   height="83.498001"
   viewBox="0 0 199.99999 83.498003"
   xml:space="preserve"
   sodipodi:docname="citrix.svg"
   inkscape:version="1.0 (4035a4f, 2020-05-01)"><metadata
   id="metadata248"><rdf:RDF><cc:Work
       rdf:about=""><dc:format>image/svg+xml</dc:format><dc:type
         rdf:resource="http://purl.org/dc/dcmitype/StillImage" /></cc:Work></rdf:RDF></metadata><defs
   id="defs246" /><sodipodi:namedview
   inkscape:document-rotation="0"
   pagecolor="#ffffff"
   bordercolor="#666666"
   borderopacity="1"
   objecttolerance="10"
   gridtolerance="10"
   guidetolerance="10"
   inkscape:pageopacity="0"
   inkscape:pageshadow="2"
   inkscape:window-width="1680"
   inkscape:window-height="934"
   id="namedview244"
   showgrid="false"
   inkscape:zoom="3.3646513"
   inkscape:cx="121.79476"
   inkscape:cy="115.56476"
   inkscape:window-x="0"
   inkscape:window-y="23"
   inkscape:window-maximized="0"
   inkscape:current-layer="svg38898" />
<g
   id="g38907"
   transform="matrix(2.6093178,0,0,-2.6093125,-1137.2681,317.19455)">
	<g
   id="XMLID_1_">
		<g
   id="g237">
			
			
			<polygon
   fill="#737373"
   points="504.076,114.582 506.212,110.758 508.685,114.582 515.325,114.582 509.357,106.286 515.629,96.55 509.14,96.55 506.133,101.862 502.325,96.55 495.772,96.55 502.997,106.31 497.461,114.582 "
   id="polygon221"
   transform="matrix(0.92445472,0,0,0.92445472,35.821534,7.974749)" />
			<polygon
   fill="#737373"
   points="494.837,114.582 489.421,114.582 "
   id="polygon223"
   transform="matrix(0.92445472,0,0,0.92445472,35.821534,7.974749)" />
			<path
   fill="#737373"
   d="m 490.77621,95.825681 c 1.73058,0 3.13482,-1.397776 3.13482,-3.128355 0,-1.730579 -1.40517,-3.134826 -3.13482,-3.134826 -1.73151,0 -3.13575,1.405171 -3.13575,3.134826 -9.3e-4,1.730579 1.40517,3.128355 3.13575,3.128355 z"
   id="path225"
   style="stroke-width:0.924455" />
			<path
   fill="#737373"
   d="m 482.07062,103.87213 5.09652,-6.641278 h -6.30109 l -3.18012,4.977268 v -4.977268 h -4.99945 v 16.669768 h 6.55253 c 1.94505,0 3.52033,-0.54728 4.55479,-1.58267 0.92445,-0.92445 1.3913,-2.17431 1.3913,-3.7274 0,-2.29265 -1.20641,-4.0676 -3.11448,-4.71842 z m -1.3608,4.46697 c 0,0.56207 -0.14699,0.97622 -0.44374,1.27945 -0.59165,0.59165 -1.73058,0.673 -2.58015,0.68039 v -3.92708 c 2.13734,0.0222 3.02389,0.59165 3.02389,1.96724 z"
   id="path227"
   style="stroke-width:0.924455" />
			<polygon
   fill="#737373"
   points="471.1,114.582 471.1,109.87 466.988,109.87 466.988,96.55 461.604,96.55 461.604,109.87 457.493,109.87 457.493,114.582 "
   id="polygon229"
   transform="matrix(0.92445472,0,0,0.92445472,35.821534,7.974749)" />
			<polygon
   fill="#737373"
   points="450.629,96.55 450.629,99.022 450.629,112.094 450.629,114.582 456.036,114.582 456.036,96.55 "
   id="polygon231"
   transform="matrix(0.92445472,0,0,0.92445472,35.821534,7.974749)" />
			<path
   fill="#737373"
   d="m 454.90736,121.5625 c 1.73058,0 3.13483,-1.40517 3.13483,-3.12835 0,-1.73058 -1.40517,-3.14315 -3.13483,-3.14315 -1.73797,0 -3.13575,1.41257 -3.13575,3.14315 -9.2e-4,1.72318 1.39685,3.12835 3.13575,3.12835 z"
   id="path233"
   style="stroke-width:0.924455" />
			<path
   fill="#737373"
   d="m 450.88414,111.60058 -2.63285,-4.2525 c -0.73956,1.22768 -2.19743,2.01901 -3.66824,2.01901 -2.10128,0 -3.63865,-1.70839 -3.63865,-3.80875 0,-2.10036 1.53737,-3.80228 3.63865,-3.80228 1.47081,0 2.92868,0.79133 3.66824,2.01901 l 2.63285,-4.259891 c -1.59007,-1.656622 -3.82355,-2.68554 -6.30109,-2.68554 -4.82195,0 -8.73424,3.903971 -8.73424,8.727781 0,4.82195 3.91229,8.74164 8.73424,8.74164 2.47754,9.2e-4 4.71102,-1.03447 6.30109,-2.69848 z"
   id="path235"
   style="stroke-width:0.924455" />
		</g>
	</g>
</g>
<polygon
   fill="#737373"
   points="78.659,11.169 78.659,33.709 71.9,33.709 71.9,30.62 71.9,14.28 71.9,11.169 "
   id="polygon241"
   transform="matrix(2.0874542,0,0,2.08745,-14.456438,-5.1016064)" />
</svg>
