<svg xmlns="http://www.w3.org/2000/svg" viewBox="0 0 511.998 511.998"><path fill="#1EB980" d="M511.924 282.654c-.016-.113-.043-.222-.063-.333-.041-.224-.087-.446-.148-.664-.035-.126-.078-.248-.12-.372-.067-.198-.14-.393-.223-.585a6.944 6.944 0 00-.168-.361c-.094-.188-.197-.37-.306-.549-.066-.109-.13-.218-.201-.323-.128-.189-.269-.368-.415-.545-.068-.083-.131-.17-.203-.251a7.3895 7.3895 0 00-.702-.691c-.007-.006-.013-.013-.02-.019a7.4976 7.4976 0 00-.759-.568c-.022-.015-.047-.025-.069-.039-.083-.053-.172-.096-.256-.146-.216-.126-.435-.246-.66-.349-.038-.017-.072-.041-.11-.058l-119.744-52.473V76.617c0-.347-.029-.69-.076-1.029-.016-.113-.043-.222-.063-.333-.041-.224-.087-.446-.148-.664-.035-.126-.078-.248-.12-.372-.067-.199-.14-.394-.223-.586a7.368 7.368 0 00-.167-.36c-.094-.188-.197-.37-.306-.55-.066-.109-.13-.218-.201-.323-.128-.189-.269-.368-.415-.545-.068-.083-.131-.17-.203-.251-.22-.246-.455-.48-.708-.696-.005-.004-.009-.009-.014-.013a7.4601 7.4601 0 00-.759-.568c-.022-.015-.047-.025-.069-.039-.083-.053-.172-.096-.257-.146-.216-.126-.434-.245-.659-.349-.038-.018-.072-.042-.11-.058L259.016 15.291a7.5073 7.5073 0 00-6.031 0L128.742 69.734c-.038.017-.072.04-.109.058-.226.104-.445.223-.662.35-.084.049-.173.092-.255.145-.023.014-.047.025-.069.039-.267.174-.52.365-.759.568-.005.004-.009.009-.014.013-.253.217-.488.451-.708.696-.072.08-.135.167-.203.251-.145.177-.286.356-.415.545-.071.105-.135.214-.201.323-.109.18-.212.362-.306.55-.059.119-.114.239-.167.36-.083.192-.156.387-.223.586-.042.123-.084.246-.12.372-.061.218-.107.44-.148.664-.021.112-.048.221-.063.333-.047.339-.076.682-.076 1.029v47.123c0 4.151 3.364 7.515 7.515 7.515s7.515-3.364 7.515-7.515V88.114l109.213 47.859v135.365l-109.213-47.045V176.51c0-4.151-3.364-7.515-7.515-7.515s-7.515 3.364-7.515 7.515v47.818L4.499 276.8c-.038.017-.072.041-.11.058-.226.103-.444.223-.661.349-.085.05-.174.093-.256.145-.022.014-.047.025-.069.039-.267.174-.52.364-.759.568-.007.006-.013.013-.02.019-.251.215-.484.447-.702.691-.072.08-.135.167-.203.251-.145.177-.286.356-.415.545-.071.105-.135.214-.201.323-.109.179-.212.361-.306.549-.059.119-.115.239-.168.361-.083.192-.156.387-.223.585-.042.124-.084.246-.12.372-.061.218-.107.44-.148.664-.021.112-.048.221-.063.333-.046.34-.075.683-.075 1.03v152.622c0 3.001 1.786 5.714 4.542 6.901l124.243 53.518c.259.112.522.205.788.286.059.018.119.03.179.046.26.072.521.129.784.173.086.014.172.028.259.04.32.041.64.07.961.07h.002c.321 0 .642-.028.961-.07.087-.011.173-.025.259-.04.264-.043.525-.101.784-.173.059-.016.12-.028.179-.046.266-.081.529-.174.788-.286L256 444.486l30.271 13.039c3.812 1.645 8.233-.116 9.874-3.929 1.642-3.811-.116-8.232-3.929-9.874l-28.701-12.364v-136.18l109.213 47.858v135.367l-31.935-13.756c-3.809-1.642-8.232.116-9.874 3.929-1.642 3.811.116 8.232 3.928 9.874l42.422 18.274c.259.112.522.205.788.286.059.018.119.03.179.046.26.072.521.129.784.173.086.014.172.028.259.04.32.041.64.07.961.07h.002c.321 0 .641-.028.961-.07.087-.011.173-.025.259-.04.264-.043.525-.101.784-.173.059-.016.12-.028.179-.046.266-.081.529-.174.788-.286l124.243-53.518c2.756-1.187 4.542-3.9 4.542-6.901V283.682c.002-.347-.027-.69-.074-1.028zm-387.682 195.75L15.029 431.359v-136.18l109.213 47.858v135.367zm7.515-148.484l-105.52-46.238 105.52-46.239 105.52 46.239-105.52 46.238zm116.728 101.439l-109.213 47.045V343.037l109.213-47.858v136.18zM256 122.856L150.48 76.617 256 30.378l105.52 46.238L256 122.856zm7.515 13.116l109.213-47.859v136.18l-109.213 47.045V135.972zm116.728 193.949l-105.52-46.238 105.52-46.239 105.52 46.239-105.52 46.238zm116.728 101.438l-109.213 47.045V343.037l109.213-47.858v136.18z"/></svg>