<?xml version="1.0" encoding="UTF-8" standalone="no"?>
<svg
   xmlns:dc="http://purl.org/dc/elements/1.1/"
   xmlns:cc="http://creativecommons.org/ns#"
   xmlns:rdf="http://www.w3.org/1999/02/22-rdf-syntax-ns#"
   xmlns:svg="http://www.w3.org/2000/svg"
   xmlns="http://www.w3.org/2000/svg"
   xmlns:sodipodi="http://sodipodi.sourceforge.net/DTD/sodipodi-0.dtd"
   xmlns:inkscape="http://www.inkscape.org/namespaces/inkscape"
   viewBox="0 0 200 65.835922"
   width="200"
   height="65.835922"
   version="1.1"
   id="svg109"
   sodipodi:docname="google.svg"
   inkscape:version="1.0 (4035a4f, 2020-05-01)">
  <metadata
     id="metadata115">
    <rdf:RDF>
      <cc:Work
         rdf:about="">
        <dc:format>image/svg+xml</dc:format>
        <dc:type
           rdf:resource="http://purl.org/dc/dcmitype/StillImage" />
      </cc:Work>
    </rdf:RDF>
  </metadata>
  <defs
     id="defs113" />
  <sodipodi:namedview
     inkscape:document-rotation="0"
     pagecolor="#ffffff"
     bordercolor="#666666"
     borderopacity="1"
     objecttolerance="10"
     gridtolerance="10"
     guidetolerance="10"
     inkscape:pageopacity="0"
     inkscape:pageshadow="2"
     inkscape:window-width="1680"
     inkscape:window-height="934"
     id="namedview111"
     showgrid="false"
     inkscape:zoom="4.3391188"
     inkscape:cx="59.093075"
     inkscape:cy="32.917963"
     inkscape:window-x="-443"
     inkscape:window-y="51"
     inkscape:window-maximized="0"
     inkscape:current-layer="svg109" />
  <path
     fill="#747474"
     d="m 85.588183,34.646194 c 0,9.471887 -7.409866,16.451564 -16.503487,16.451564 -9.093604,0 -16.50347,-6.979677 -16.50347,-16.451564 0,-9.538645 7.409866,-16.451565 16.50347,-16.451565 9.093621,0 16.503487,6.91292 16.503487,16.451565 z m -7.22444,0 c 0,-5.919004 -4.294609,-9.968848 -9.279047,-9.968848 -4.984421,0 -9.27903,4.049844 -9.27903,9.968848 0,5.859664 4.294609,9.968846 9.27903,9.968846 4.984438,0 9.279047,-4.1166 9.279047,-9.968846 z"
     id="path97"
     style="stroke-width:0.741729" />
  <path
     fill="#747474"
     d="m 121.19122,34.646194 c 0,9.471887 -7.40989,16.451564 -16.50349,16.451564 -9.093605,0 -16.503488,-6.979677 -16.503488,-16.451564 0,-9.531227 7.409883,-16.451565 16.503488,-16.451565 9.0936,0 16.50349,6.91292 16.50349,16.451565 z m -7.22446,0 c 0,-5.919004 -4.29461,-9.968848 -9.27903,-9.968848 -4.984423,0 -9.279032,4.049844 -9.279032,9.968848 0,5.859664 4.294609,9.968846 9.279032,9.968846 4.98442,0 9.27903,-4.1166 9.27903,-9.968846 z"
     id="path99"
     style="stroke-width:0.741729" />
  <path
     fill="#747474"
     d="m 155.31078,19.188547 v 29.535676 c 0,12.149531 -7.1651,17.111703 -15.63567,17.111703 -7.97358,0 -12.77258,-5.333035 -14.58239,-9.694407 l 6.28986,-2.618305 c 1.12,2.677644 3.86441,5.837412 8.28513,5.837412 5.42203,0 8.78206,-3.345201 8.78206,-9.642485 v -2.366118 h -0.25218 c -1.61696,1.995253 -4.73224,3.738317 -8.6634,3.738317 -8.22579,0 -15.76176,-7.165109 -15.76176,-16.384808 0,-9.286456 7.53597,-16.510903 15.76176,-16.510903 3.92376,0 7.03901,1.743065 8.6634,3.678979 h 0.25218 v -2.677645 h 6.86101 z m -6.34921,15.516985 c 0,-5.79291 -3.86441,-10.028186 -8.78207,-10.028186 -4.98442,0 -9.16036,4.235276 -9.16036,10.028186 0,5.73357 4.17594,9.909508 9.16036,9.909508 4.91766,0 8.78207,-4.175938 8.78207,-9.909508 z"
     id="path101"
     style="stroke-width:0.741729" />
  <path
     fill="#747474"
     d="m 166.62216,1.876575 v 48.21243 h -7.04644 V 1.876575 Z"
     id="path103"
     style="stroke-width:0.741729" />
  <path
     fill="#747474"
     d="m 194.08099,40.06082 5.60747,3.738317 c -1.80981,2.677645 -6.17118,7.291203 -13.70715,7.291203 -9.34581,0 -16.32547,-7.224447 -16.32547,-16.451564 0,-9.783415 7.03902,-16.451564 15.51699,-16.451564 8.5373,0 12.71324,6.794243 14.07802,10.465806 L 200,30.522176 178.00771,39.630617 c 1.68373,3.300698 4.30203,4.984423 7.9736,4.984423 3.67898,0 6.23053,-1.809821 8.09968,-4.55422 z m -17.26004,-5.919003 14.70108,-6.104436 c -0.80848,-2.054591 -3.24137,-3.486129 -6.10444,-3.486129 -3.67156,0 -8.78209,3.241359 -8.59664,9.590565 z"
     id="path105"
     style="stroke-width:0.741729" />
  <path
     fill="#747474"
     d="M 25.908618,30.366413 V 23.386736 H 49.42887 c 0.229932,1.216437 0.348618,2.655394 0.348618,4.213026 0,5.236611 -1.431553,11.711911 -6.045105,16.325469 C 39.244918,48.598129 33.511348,51.09034 25.916036,51.09034 11.838006,51.09034 0,39.623199 0,25.54517 0,11.46714 11.838006,0 25.916036,0 c 7.788161,0 13.3363,3.0559255 17.504828,7.0390139 L 38.495771,11.964099 C 35.506601,9.160361 31.456756,6.979676 25.908618,6.979676 c -10.280374,0 -18.320723,8.28512 -18.320723,18.565494 0,10.280374 8.040349,18.565495 18.320723,18.565495 6.668151,0 10.465806,-2.677645 12.89868,-5.110519 1.973001,-1.973001 3.271027,-4.791573 3.782816,-8.64115 z"
     id="path107"
     style="stroke-width:0.741729" />
</svg>
