<svg xmlns="http://www.w3.org/2000/svg" width="200" height="65.8359"><path fill="#747474" stroke-width=".7417" d="M85.5882 34.6462c0 9.4719-7.4099 16.4516-16.5035 16.4516-9.0936 0-16.5035-6.9797-16.5035-16.4516 0-9.5387 7.4099-16.4516 16.5035-16.4516 9.0936 0 16.5035 6.913 16.5035 16.4516zm-7.2245 0c0-5.919-4.2946-9.9689-9.279-9.9689s-9.279 4.0499-9.279 9.9689c0 5.8597 4.2946 9.9688 9.279 9.9688s9.279-4.1166 9.279-9.9688zM121.1912 34.6462c0 9.4719-7.4099 16.4516-16.5035 16.4516-9.0936 0-16.5035-6.9797-16.5035-16.4516 0-9.5312 7.41-16.4516 16.5035-16.4516 9.0936 0 16.5035 6.913 16.5035 16.4516zm-7.2244 0c0-5.919-4.2946-9.9689-9.279-9.9689-4.9845 0-9.2791 4.0499-9.2791 9.9689 0 5.8597 4.2946 9.9688 9.279 9.9688s9.279-4.1166 9.279-9.9688zM155.3108 19.1885v29.5357c0 12.1496-7.1651 17.1117-15.6357 17.1117-7.9736 0-12.7726-5.333-14.5824-9.6944l6.2899-2.6183c1.12 2.6777 3.8644 5.8374 8.2851 5.8374 5.422 0 8.782-3.3452 8.782-9.6425v-2.366h-.2521c-1.617 1.9952-4.7323 3.7382-8.6634 3.7382-8.2258 0-15.7618-7.165-15.7618-16.3848 0-9.2864 7.536-16.5109 15.7618-16.5109 3.9237 0 7.039 1.743 8.6634 3.679h.2522V19.196h6.861zm-6.3492 15.517c0-5.7929-3.8644-10.0282-8.7821-10.0282-4.9844 0-9.1604 4.2353-9.1604 10.0282 0 5.7336 4.176 9.9095 9.1604 9.9095 4.9177 0 8.782-4.1759 8.782-9.9095zM166.6222 1.8766V50.089h-7.0465V1.8766zM194.081 40.0608l5.6075 3.7383c-1.8098 2.6777-6.1712 7.2912-13.7072 7.2912-9.3458 0-16.3255-7.2244-16.3255-16.4515 0-9.7834 7.039-16.4516 15.517-16.4516 8.5373 0 12.7133 6.7943 14.078 10.4658L200 30.5222l-21.9923 9.1084c1.6837 3.3007 4.302 4.9844 7.9736 4.9844 3.679 0 6.2305-1.8098 8.0997-4.5542zm-17.26-5.919l14.701-6.1044c-.8084-2.0546-3.2413-3.4861-6.1044-3.4861-3.6716 0-8.7821 3.2413-8.5967 9.5905zM25.9086 30.3664v-6.9797H49.429c.2299 1.2165.3486 2.6554.3486 4.213 0 5.2367-1.4316 11.712-6.0451 16.3255-4.4875 4.673-10.221 7.1651-17.8164 7.1651C11.838 51.0903 0 39.6232 0 25.5452 0 11.4672 11.838 0 25.916 0c7.7882 0 13.3363 3.056 17.5049 7.039l-4.9251 4.9251c-2.9892-2.8037-7.039-4.9844-12.5872-4.9844-10.2804 0-18.3207 8.2851-18.3207 18.5655 0 10.2803 8.0403 18.5655 18.3207 18.5655 6.6682 0 10.4658-2.6777 12.8987-5.1106 1.973-1.973 3.271-4.7915 3.7828-8.6411z"/></svg>