<?xml version="1.0" encoding="UTF-8" standalone="no"?>
<svg
   xmlns:dc="http://purl.org/dc/elements/1.1/"
   xmlns:cc="http://creativecommons.org/ns#"
   xmlns:rdf="http://www.w3.org/1999/02/22-rdf-syntax-ns#"
   xmlns:svg="http://www.w3.org/2000/svg"
   xmlns="http://www.w3.org/2000/svg"
   xmlns:sodipodi="http://sodipodi.sourceforge.net/DTD/sodipodi-0.dtd"
   xmlns:inkscape="http://www.inkscape.org/namespaces/inkscape"
   sodipodi:docname="logo2.svg"
   inkscape:version="1.0 (4035a4fb49, 2020-05-01)"
   id="svg1704"
   version="1.1"
   viewBox="0 0 137.61925 57.095081"
   height="57.095081mm"
   width="137.61925mm">
  <defs
     id="defs1698" />
  <sodipodi:namedview
     inkscape:window-maximized="1"
     inkscape:window-y="-8"
     inkscape:window-x="-8"
     inkscape:window-height="1377"
     inkscape:window-width="3440"
     showgrid="false"
     inkscape:document-rotation="0"
     inkscape:current-layer="layer1"
     inkscape:document-units="mm"
     inkscape:cy="99.732063"
     inkscape:cx="141.51004"
     inkscape:zoom="0.81"
     inkscape:pageshadow="2"
     inkscape:pageopacity="0.0"
     borderopacity="1.0"
     bordercolor="#666666"
     pagecolor="#ffffff"
     id="base" />
  <metadata
     id="metadata1701">
    <rdf:RDF>
      <cc:Work
         rdf:about="">
        <dc:format>image/svg+xml</dc:format>
        <dc:type
           rdf:resource="http://purl.org/dc/dcmitype/StillImage" />
        <dc:title></dc:title>
      </cc:Work>
    </rdf:RDF>
  </metadata>
  <g
     transform="translate(-34.755856,-107.52575)"
     id="layer1"
     inkscape:groupmode="layer"
     inkscape:label="Layer 1">
    <g
       id="g24"
       transform="matrix(0.35277777,0,0,-0.35277777,50.057239,144.06359)">
      <path
         d="M 0,0 -10.69,25.76 -21.557,0 Z m 4.205,-10.079 h -29.967 l -5.432,-12.967 h -12.18 l 26.9,61.337 h 12.18 l 26.55,-61.337 H 9.637 Z"
         style="fill:#19b288;fill-opacity:1;fill-rule:nonzero;stroke:none"
         id="path26" />
    </g>
    <path
       id="path38"
       style="fill:#19b288;fill-opacity:1;fill-rule:nonzero;stroke:none;stroke-width:0.352777"
       d="m 70.612579,143.97091 c 0,-2.96686 -1.91629,-5.03802 -4.69865,-5.03802 -2.75131,0 -4.6676,2.10256 -4.6983,5.03802 0.0307,2.96792 1.91629,5.03908 4.6983,5.03908 2.78236,0 4.69865,-2.07116 4.69865,-5.03908 m 4.01884,-14.71295 v 22.93585 h -4.01884 v -2.65818 c -1.17511,1.82421 -3.09104,2.84339 -5.56401,2.84339 -4.7297,0 -7.88212,-3.46181 -7.88212,-8.50089 0,-5.00768 3.15242,-8.37636 7.78933,-8.37636 2.53506,0 4.45135,1.02024 5.6568,2.87444 v -9.11825 z" />
    <g
       transform="matrix(0.35277777,0,0,-0.35277777,80.535829,135.65531)"
       id="g40">
      <path
         id="path42"
         style="fill:#19b288;fill-opacity:1;fill-rule:nonzero;stroke:none"
         d="M 0,0 12.267,-35.665 24.271,0 H 35.75 L 17.875,-46.881 H 6.134 L -11.917,-0.09 Z" />
    </g>
    <g
       transform="matrix(0.35277777,0,0,-0.35277777,103.81108,146.44431)"
       id="g44">
      <path
         id="path46"
         style="fill:#19b288;fill-opacity:1;fill-rule:nonzero;stroke:none"
         d="m 0,0 v 4.206 h -11.828 c -6.047,0 -8.849,-1.665 -8.849,-5.784 0,-3.943 3.152,-6.483 8.324,-6.483 6.572,0 11.741,3.504 12.353,8.061 m 0.089,-16.298 v 5.695 c -3.244,-4.119 -8.5,-6.22 -15.161,-6.22 -10.075,0 -16.385,6.22 -16.385,14.546 0,8.673 6.398,14.019 17.788,14.106 H 0 v 1.229 c 0,5.432 -3.591,8.673 -10.601,8.673 -4.381,0 -9.115,-1.49 -13.932,-4.381 l -4.119,7.885 c 6.746,3.769 12.005,5.784 20.591,5.784 12.269,0 19.19,-6.221 19.277,-16.648 l 0.09,-30.669 z" />
    </g>
    <g
       transform="matrix(0.35277777,0,0,-0.35277777,127.45873,141.86924)"
       id="g48">
      <path
         id="path50"
         style="fill:#19b288;fill-opacity:1;fill-rule:nonzero;stroke:none"
         d="m 0,0 v -29.267 h -11.478 v 25.936 c 0,6.572 -3.943,10.603 -10.428,10.603 -7.71,-0.086 -12.267,-5.783 -12.267,-13.492 v -23.047 h -11.391 v 46.881 h 11.391 V 8.852 c 3.328,6.219 9.201,9.108 16.824,9.198 C -6.572,18.05 0,11.126 0,0" />
    </g>
    <g
       style="fill:#72deff;fill-opacity:1"
       transform="matrix(0.35277777,0,0,-0.35277777,129.93265,136.33539)"
       id="g52">
      <path
         id="path54"
         style="fill:#72deff;fill-opacity:1;fill-rule:nonzero;stroke:none"
         d="m 0,0 v 5.265 l 11.303,7.613 V 0 H 24.709 V -8.327 H 11.303 v -21.118 c 0,-4.466 1.841,-5.958 4.909,-5.958 1.925,0 4.116,0.702 6.659,1.928 l 2.629,-8.587 c -3.593,-2.19 -7.625,-3.417 -11.744,-3.417 C 6.134,-45.479 0,-41.097 0,-31.458 v 23.131" />
    </g>
    <g
       style="fill:#72deff;fill-opacity:1"
       transform="matrix(0.35277777,0,0,-0.35277777,152.15902,142.64214)"
       id="g56">
      <path
         id="path58"
         style="fill:#72deff;fill-opacity:1;fill-rule:nonzero;stroke:none"
         d="M 0,0 C -0.264,6.924 -4.907,11.305 -12.004,11.305 -18.752,11.305 -23.483,6.924 -24.536,0 Z m 10.338,-7.623 h -34.611 c 1.489,-6.661 6.571,-10.69 13.406,-10.69 4.82,0 9.288,1.839 12.618,5.258 l 6.133,-6.398 c -4.643,-5.08 -11.478,-8.062 -19.715,-8.062 -14.544,0 -24.097,9.638 -24.097,23.748 0,14.282 9.816,23.918 23.835,23.918 16.474,0 23.571,-10.774 22.431,-27.774" />
    </g>
    <g
       style="fill:#72deff;fill-opacity:1"
       transform="matrix(0.35277777,0,0,-0.35277777,165.41973,139.05615)"
       id="g60">
      <path
         id="path62"
         style="fill:#72deff;fill-opacity:1;fill-rule:nonzero;stroke:none"
         d="m 0,0 c -7.536,0 -12.792,-5.61 -12.792,-13.845 0,-8.413 5.256,-14.019 12.792,-14.019 5.432,0 9.813,1.839 12.619,5.519 l 7.097,-5.87 c -4.118,-5.958 -11.13,-9.465 -20.328,-9.465 -14.021,0 -23.661,9.638 -23.661,23.748 0,14.282 9.727,23.918 23.834,23.918 8.587,0 15.424,-3.152 19.63,-8.584 L 12.267,-5.17 C 9.288,-1.928 5.167,0 0,0" />
    </g>
    <path
       transform="scale(0.26458333)"
       id="path1812"
       d="m 131.83521,574.80791 c 0,-0.0795 7.97307,-18.32391 17.71793,-40.54307 l 17.71793,-40.39848 8.03751,-0.1007 8.03752,-0.10069 17.29911,39.98834 c 9.51451,21.99358 17.41016,40.28661 17.5459,40.65118 0.23207,0.62331 -0.24135,0.65683 -7.93478,0.5618 l -8.18158,-0.10106 -3.56459,-8.52377 -3.56459,-8.52379 -20.15019,0.0968 -20.15018,0.0968 -1.97068,4.68165 c -1.08388,2.57491 -2.69531,6.40918 -3.58097,8.5206 l -1.61029,3.83895 h -7.82403 c -4.30321,0 -7.82402,-0.0651 -7.82402,-0.14459 z m 55.57582,-35.15503 c -1.1347,-2.72941 -4.3517,-10.48221 -7.14891,-17.22847 -2.7972,-6.74625 -5.1935,-12.26592 -5.32511,-12.26592 -0.17438,0 -13.00451,29.99288 -14.52403,33.95269 -0.16014,0.41733 2.32768,0.50424 14.43382,0.50424 h 14.62731 z"
       style="fill:#1eb980;fill-opacity:1;stroke:none;stroke-width:0.374532" />
    <path
       transform="scale(0.26458333)"
       id="path1814"
       d="m 135.26558,574.67869 c -2.2552,-0.0954 -3.07198,-0.25794 -2.93712,-0.58458 1.48987,-3.60839 34.85685,-79.54918 35.03148,-79.72906 0.13368,-0.13771 3.76743,-0.30117 8.07499,-0.36325 l 7.83194,-0.11287 2.32941,5.41943 c 1.28118,2.98068 9.09108,21.06615 17.35533,40.18993 8.26426,19.12379 15.02592,34.84343 15.02592,34.93255 0,0.0891 -3.56541,0.11654 -7.92313,0.061 l -7.92313,-0.10109 -3.44657,-8.2397 -3.44656,-8.2397 -20.37188,-0.0924 -20.37188,-0.0924 -3.57179,8.51935 -3.57178,8.51934 -4.48065,0.0228 c -2.46436,0.0125 -5.88642,-0.0367 -7.60458,-0.10934 z m 54.24753,-30.28115 c 0,-0.26993 -10.33855,-25.14472 -12.635,-30.4001 -0.92263,-2.11142 -1.80502,-3.83895 -1.96087,-3.83895 -0.15585,0 -2.6513,5.51967 -5.54543,12.26592 -7.68788,17.92048 -9.1179,21.4395 -8.87325,21.83536 0.23616,0.38212 29.01455,0.51878 29.01455,0.13777 z"
       style="display:none;fill:#1eb980;fill-opacity:1;stroke:none;stroke-width:0.374532" />
    <path
       transform="scale(0.26458333)"
       id="path2639"
       d="m 240.57335,575.34202 c -5.66391,-1.03243 -10.6969,-3.45985 -14.52804,-7.0069 -6.00512,-5.55982 -9.20117,-12.9969 -9.64446,-22.44227 -0.25533,-5.44061 0.26711,-9.53955 1.80976,-14.19878 1.52822,-4.61564 3.67787,-8.0848 7.12028,-11.49089 2.29751,-2.27327 3.63808,-3.23553 6.39122,-4.58761 5.24186,-2.57432 7.35105,-3.02697 13.97077,-2.99823 5.04801,0.0219 5.92494,0.126 8.6436,1.02595 4.02655,1.33291 6.89436,3.25388 10.17663,6.81674 l 2.71535,2.94747 v -17.29866 -17.29866 h 7.30338 7.30337 v 43.07116 43.07116 h -7.30337 -7.30338 v -4.86891 c 0,-2.67791 -0.1339,-4.86892 -0.29756,-4.86892 -0.16367,0 -0.93905,0.84116 -1.72307,1.86923 -1.46221,1.91738 -4.9858,4.79514 -7.333,5.98898 -3.11213,1.58288 -6.476,2.33147 -11.05835,2.46094 -2.47191,0.0698 -5.28132,-0.0165 -6.24313,-0.1918 z m 13.13952,-12.57726 c 6.1875,-1.45849 10.64161,-5.93515 12.57725,-12.64094 0.80271,-2.78086 0.81474,-9.01054 0.0231,-11.97536 -1.89048,-7.08042 -7.49263,-12.11148 -14.46056,-12.9864 -6.0213,-0.75606 -11.45345,1.02017 -15.2677,4.99231 -3.53558,3.68195 -4.88967,7.01291 -5.19351,12.77566 -0.34232,6.49266 1.34707,11.38773 5.30737,15.37825 4.37186,4.40523 10.46291,6.00066 17.014,4.45648 z"
       style="display:none;fill:#1eb980;fill-opacity:1;stroke-width:0.374532" />
    <path
       transform="scale(0.26458333)"
       id="path2641"
       d="m 300.81104,544.18322 c -6.52808,-16.92311 -11.8051,-30.83342 -11.72671,-30.91181 0.0784,-0.0784 3.50485,-0.24661 7.61434,-0.37383 l 7.47182,-0.23131 5.71532,16.63001 c 3.14342,9.1465 6.82347,19.87439 8.17788,23.83974 1.3544,3.96536 2.56325,7.20759 2.68633,7.20496 0.12307,-0.003 3.76309,-10.54992 8.08893,-23.43842 4.32584,-12.8885 7.96165,-23.59226 8.07957,-23.78613 0.12568,-0.20663 3.23542,-0.31038 7.51484,-0.25072 l 7.30043,0.10177 -11.81378,30.99251 -11.81377,30.99251 h -7.71298 -7.71298 z"
       style="display:none;fill:#1eb980;fill-opacity:1;stroke-width:0.374532" />
    <path
       transform="scale(0.26458333)"
       id="path2643"
       d="m 366.32535,575.11103 c -9.7156,-2.17843 -15.57629,-9.14545 -15.57629,-18.51667 0,-7.4328 3.35898,-12.8319 9.93584,-15.97054 4.61919,-2.2044 6.51262,-2.45539 19.97292,-2.64761 l 12.1185,-0.17305 -0.26236,-2.49275 c -0.36205,-3.43996 -1.44565,-5.76169 -3.58811,-7.68795 -2.6821,-2.41144 -5.02786,-3.05221 -11.02323,-3.01113 -5.72277,0.0392 -9.23266,0.91888 -14.77717,3.7035 l -3.33401,1.67444 -1.29451,-2.33112 c -0.71199,-1.28211 -1.89917,-3.53957 -2.63818,-5.01656 l -1.34366,-2.68545 1.95594,-1.10071 c 8.49169,-4.77869 16.6683,-6.73123 26.57232,-6.34534 14.66371,0.57133 22.5781,7.06866 23.8985,19.6195 0.19152,1.82039 0.35121,12.20025 0.35487,23.06636 l 0.007,19.75655 H 400 392.69663 v -3.78566 -3.78566 l -2.24558,2.07901 c -2.45543,2.27329 -6.41584,4.39809 -9.92671,5.32576 -3.29006,0.86933 -10.98588,1.04552 -14.19899,0.32508 z m 14.1662,-11.20689 c 5.34072,-1.13143 9.56785,-4.01017 11.18869,-7.61968 0.55171,-1.22863 0.83128,-2.77915 0.94613,-5.24729 l 0.16301,-3.50335 -10.6269,0.17603 c -6.43183,0.10654 -11.16177,0.34523 -11.98182,0.60464 -4.40725,1.39419 -6.45137,5.2985 -5.17687,9.88795 1.35708,4.88681 7.9235,7.30418 15.48776,5.7017 z"
       style="display:none;fill:#1eb980;fill-opacity:1;stroke-width:0.374532" />
    <path
       transform="scale(0.26458333)"
       id="path2645"
       d="m 421.16105,543.86636 v -31.08614 h 7.48112 7.48113 l 0.10314,5.89887 0.10315,5.89888 1.00581,-1.71088 c 1.47926,-2.5162 5.7257,-6.33488 8.58455,-7.71981 4.25717,-2.06231 6.63987,-2.53971 12.69428,-2.54343 4.69036,-0.003 5.78813,0.1155 8.05244,0.86835 6.69975,2.22757 11.25048,6.82517 13.58752,13.72749 l 1.0145,2.99626 0.11251,22.37827 0.11251,22.37828 h -7.50716 -7.50715 v -18.69322 c 0,-17.32942 -0.052,-18.86045 -0.71336,-20.98526 -1.52642,-4.90441 -4.97325,-7.76195 -10.50733,-8.71094 -3.17418,-0.54431 -6.96555,-0.0244 -10.02012,1.37402 -2.64552,1.21116 -5.57121,4.03452 -6.89196,6.65092 -2.1439,4.24703 -2.20431,4.88839 -2.20431,23.40197 v 16.96251 h -7.49063 -7.49064 z"
       style="display:none;fill:#1eb980;fill-opacity:1;stroke-width:0.374532" />
    <path
       transform="scale(0.26458333)"
       id="path2647"
       d="m 504.22197,575.14378 c -5.98444,-1.51933 -10.01833,-5.2576 -12.02853,-11.14703 -0.78121,-2.28877 -0.80125,-2.92428 -0.91303,-28.95515 l -0.11428,-26.61501 7.13067,-4.75203 c 3.92187,-2.61361 7.21567,-4.75202 7.31956,-4.75202 0.10389,0 0.18888,3.70786 0.18888,8.2397 v 8.2397 h 8.98877 8.98876 v 5.43071 5.43071 h -9.01443 -9.01442 l 0.11929,15.63671 0.1193,15.6367 0.93633,1.87266 c 1.71793,3.43586 5.29911,4.10133 11.23595,2.08791 1.75094,-0.59382 3.23226,-1.03307 3.29182,-0.97611 0.0596,0.057 0.84217,2.48801 1.73912,5.40235 l 1.63081,5.29881 -1.55185,0.90674 c -0.85351,0.4987 -3.15297,1.44436 -5.1099,2.10146 -2.94813,0.98993 -4.26427,1.21727 -7.6779,1.32625 -2.77336,0.0885 -4.82092,-0.0465 -6.26492,-0.41306 z"
       style="display:none;fill:#72deff;fill-opacity:1;stroke-width:0.374532" />
    <path
       transform="scale(0.26458333)"
       id="path2649"
       d="m 554.29664,575.33753 c -8.55117,-1.21743 -16.27969,-5.46773 -20.6613,-11.36268 -2.09601,-2.81996 -4.28483,-7.40122 -5.22326,-10.93246 -0.54956,-2.06795 -0.69639,-3.96662 -0.69515,-8.98877 10e-4,-5.52777 0.11533,-6.76199 0.86461,-9.36329 2.54243,-8.82672 7.79176,-15.20248 15.61322,-18.96357 5.01913,-2.41355 8.09174,-3.05293 14.794,-3.0785 6.78696,-0.0259 10.51014,0.71084 15.27912,3.02339 4.21557,2.04418 8.74577,6.62208 10.85199,10.96624 0.84892,1.75094 1.88961,4.5594 2.31264,6.24104 1.20606,4.7943 1.89783,13.09299 1.28274,15.38818 l -0.22583,0.84269 h -22.99717 -22.99716 l 0.22405,1.02997 c 0.12323,0.56648 0.82994,2.294 1.57047,3.83895 2.95811,6.17143 8.98979,9.73783 16.46912,9.73783 5.07668,0 11.45299,-2.29042 14.95296,-5.37122 l 1.75093,-1.54123 3.85853,4.10934 3.85853,4.10933 -1.39134,1.44329 c -3.62324,3.75855 -9.89546,6.95144 -16.37261,8.33453 -3.2255,0.68875 -10.08175,0.96937 -13.11909,0.53694 z m 20.79699,-37.3957 c 0,-0.78659 -0.2712,-2.34557 -0.60266,-3.46442 -1.27699,-4.31041 -3.69927,-7.07731 -7.96536,-9.09861 -2.38634,-1.13067 -2.66649,-1.17536 -7.36779,-1.17536 h -4.88712 l -2.85505,1.41044 c -4.48002,2.2132 -7.35086,5.85645 -8.69143,11.02991 -0.32417,1.25098 -0.58939,2.37659 -0.58939,2.50135 0,0.12476 7.41573,0.22684 16.4794,0.22684 h 16.4794 z"
       style="display:inline;fill:#72deff;fill-opacity:1;stroke-width:0.374532" />
    <path
       transform="scale(0.26458333)"
       id="path2651"
       d="m 618.71402,575.15974 c -12.62147,-1.96199 -21.35365,-9.95403 -24.77943,-22.67915 -1.00501,-3.73314 -0.8926,-13.38322 0.20287,-17.41573 2.98303,-10.98074 10.63021,-18.60276 21.67386,-21.60257 3.81043,-1.03504 13.09041,-1.1442 17.19071,-0.20222 6.25443,1.43686 11.4329,4.18157 15.29892,8.10878 l 2.23354,2.26889 -4.48073,4.2569 -4.48073,4.2569 -1.81086,-1.62543 c -2.11284,-1.89649 -5.5049,-3.63614 -8.66108,-4.44192 -3.19651,-0.81607 -8.57257,-0.74159 -11.46568,0.15885 -7.12632,2.21796 -11.56058,8.98413 -11.57744,17.66583 -0.0256,13.20958 8.91386,20.81675 21.82093,18.56878 4.19179,-0.73007 7.59649,-2.32823 10.19442,-4.78524 l 2.05195,-1.94065 2.15834,1.78818 c 1.18709,0.98349 3.21171,2.63728 4.49916,3.67507 1.28745,1.03779 2.34083,2.02212 2.34083,2.1874 0,0.67457 -5.96626,6.20725 -7.95379,7.37579 -7.00439,4.11809 -15.89902,5.71167 -24.45579,4.38154 z"
       style="display:none;fill:#72deff;fill-opacity:1;stroke-width:0.374532" />
    <path
       transform="scale(0.26458333)"
       id="path2693"
       d="m 300.76709,544.20945 c -6.53963,-16.95557 -11.93597,-30.95098 -11.99187,-31.10091 -0.0581,-0.15575 3.22949,-0.27261 7.66934,-0.27261 h 7.77096 l 0.89715,2.51525 c 0.49343,1.38338 4.17637,12.08275 8.18432,23.77637 4.00795,11.69362 7.35577,21.26227 7.43962,21.26365 0.0838,0.002 3.70678,-10.59508 8.05098,-23.54771 4.3442,-12.95263 7.98922,-23.65563 8.10006,-23.78444 0.11083,-0.12882 3.50477,-0.19741 7.54208,-0.15244 l 7.34056,0.0818 -11.79907,30.94512 -11.79907,30.94513 -7.75741,0.0796 -7.7574,0.0796 z"
       style="fill:#1eb980;fill-opacity:1;fill-rule:nonzero;stroke:#ffffff;stroke-width:0.114077;stroke-miterlimit:4;stroke-dasharray:none;stroke-opacity:1" />
    <path
       transform="scale(0.26458333)"
       id="path2695"
       d="m 366.46831,575.18713 c -10.2911,-2.28409 -16.31531,-9.84664 -15.76654,-19.79268 0.48477,-8.78608 5.86099,-14.5476 15.60588,-16.72432 2.42121,-0.54082 4.15865,-0.63129 14.44967,-0.75237 l 11.69754,-0.13762 -0.13268,-2.63979 c -0.15427,-3.0691 -0.81536,-4.81682 -2.54706,-6.73361 -1.54961,-1.71523 -3.22451,-2.64507 -6.08002,-3.37538 -5.89014,-1.50645 -13.12528,-0.35941 -20.52454,3.2539 -1.89761,0.92666 -3.49496,1.63682 -3.54968,1.57812 -0.0547,-0.0587 -1.23401,-2.28739 -2.62064,-4.95267 -2.95487,-5.67961 -3.21033,-4.85035 2.31796,-7.52445 6.3938,-3.09276 10.72476,-4.28039 17.89646,-4.90752 13.40119,-1.17188 23.41448,2.99283 27.61418,11.48524 2.26348,4.57708 2.46932,7.28763 2.48314,32.69817 l 0.01,18.36891 h -7.31707 -7.31707 v -3.8411 -3.84109 l -2.3187,2.16541 c -2.6655,2.48928 -5.90738,4.2404 -9.72399,5.25247 -3.1985,0.84817 -11.18269,1.08491 -14.17683,0.42038 z m 16.50685,-11.9575 c 4.35846,-1.5023 7.32227,-3.90526 8.77996,-7.11853 0.5026,-1.10791 0.61565,-2.00645 0.62113,-4.93675 l 0.007,-3.58232 -7.3933,0.005 c -12.8444,0.009 -16.42273,0.59233 -18.63368,3.03958 -1.31709,1.45787 -1.83116,3.23296 -1.63861,5.65826 0.30752,3.87352 2.60682,6.37138 7.0103,7.6157 2.64998,0.74882 8.0476,0.42206 11.2475,-0.6809 z"
       style="fill:#1eb980;fill-opacity:1;fill-rule:nonzero;stroke:#ffffff;stroke-width:0.114077;stroke-miterlimit:4;stroke-dasharray:none;stroke-opacity:1" />
    <path
       transform="scale(0.26458333)"
       id="path2697"
       d="m 421.04148,543.93349 v -31.09756 h 7.46952 7.46951 v 5.79269 c 0,3.18597 0.10289,5.78996 0.22866,5.78663 0.12576,-0.003 0.64024,-0.71944 1.14329,-1.59136 1.25654,-2.17792 4.78697,-5.6362 7.16931,-7.0228 4.10144,-2.38717 11.13596,-3.88936 16.12537,-3.44348 8.82848,0.78894 15.00549,4.70652 18.30026,11.60637 2.5939,5.43209 2.753,7.24697 2.75953,31.47866 l 0.005,19.58842 h -7.62196 -7.62195 l -0.004,-18.67379 c -0.003,-15.08304 -0.0862,-18.98393 -0.43298,-20.28677 -1.6413,-6.16581 -6.25414,-9.53676 -13.13046,-9.59542 -6.67409,-0.0569 -11.71035,2.77136 -14.53124,8.16055 -2.23019,4.26067 -2.18545,3.81346 -2.31006,23.0936 l -0.11181,17.30183 h -7.45332 -7.45333 z"
       style="fill:#1eb980;fill-opacity:1;fill-rule:nonzero;stroke:#ffffff;stroke-width:0.114077;stroke-miterlimit:4;stroke-dasharray:none;stroke-opacity:1" />
    <path
       transform="scale(0.26458333)"
       id="path2725"
       d="m 239.02929,575.06077 c -4.54174,-1.00203 -8.41363,-2.8533 -11.98539,-5.7306 -7.55485,-6.08596 -11.74353,-17.57202 -10.63407,-29.16042 1.34449,-14.04345 8.94701,-23.66058 21.28659,-26.92738 2.62823,-0.6958 3.60865,-0.79664 7.73531,-0.79564 5.62531,10e-4 8.02788,0.52205 12.447,2.69757 2.24602,1.1057 3.33914,1.89093 5.20339,3.73777 1.29802,1.28591 2.72168,2.81819 3.16368,3.40508 l 0.80364,1.06708 0.0143,-17.30183 0.0143,-17.30183 h 7.46951 7.46951 v 43.14024 43.14025 h -7.46951 -7.46951 l -0.0143,-5.10671 -0.0143,-5.10671 -0.80364,1.06707 c -0.442,0.58689 -1.85085,2.10485 -3.13078,3.37323 -1.84188,1.82527 -2.92691,2.60063 -5.20339,3.71838 -4.18985,2.05721 -5.74292,2.40272 -11.41283,2.53898 -3.96382,0.0952 -5.36373,0.0101 -7.46951,-0.45453 z m 15.1495,-12.4052 c 5.83157,-1.51893 10.51344,-6.44612 12.14082,-12.77695 1.68475,-6.554 0.22228,-14.12557 -3.63063,-18.79664 -3.15773,-3.82826 -7.21415,-5.74076 -12.68789,-5.98202 -5.57647,-0.24579 -9.60874,1.25385 -13.27296,4.93631 -3.69911,3.71752 -5.38704,8.17679 -5.38579,14.22847 0.002,9.99379 5.88944,17.5067 14.76813,18.84567 2.24973,0.33928 5.78454,0.14001 8.06832,-0.45484 z"
       style="fill:#1eb980;fill-opacity:1;fill-rule:nonzero;stroke:#ffffff;stroke-width:0.114077;stroke-miterlimit:4;stroke-dasharray:none;stroke-opacity:1" />
  </g>
</svg>
