<svg xmlns="http://www.w3.org/2000/svg" width="520.136" height="87.388" viewBox="0 0 137.619 23.121"><path fill="#19b288" d="M15.301 14.806l-3.77-9.088-3.834 9.088zm1.484 3.555H6.213l-1.916 4.575H0L9.49 1.297h4.297l9.366 21.639H18.7zM35.857 14.713c0-2.967-1.917-5.038-4.699-5.038-2.751 0-4.668 2.102-4.698 5.038.03 2.968 1.916 5.039 4.698 5.039 2.782 0 4.699-2.071 4.699-5.039M39.876 0v22.936h-4.02v-2.658c-1.174 1.824-3.09 2.843-5.563 2.843-4.73 0-7.882-3.462-7.882-8.5 0-5.009 3.152-8.377 7.789-8.377 2.535 0 4.451 1.02 5.657 2.874V0zM45.78 6.397l4.327 12.582 4.235-12.582h4.05l-6.306 16.539h-4.142L41.576 6.429zM69.055 17.186v-1.483h-4.172c-2.134 0-3.122.587-3.122 2.04 0 1.391 1.112 2.287 2.936 2.287 2.319 0 4.142-1.236 4.358-2.844m.032 5.75v-2.01c-1.145 1.454-2.999 2.195-5.349 2.195-3.554 0-5.78-2.194-5.78-5.131 0-3.06 2.257-4.946 6.275-4.977h4.822v-.433c0-1.917-1.267-3.06-3.74-3.06-1.545 0-3.215.526-4.914 1.546l-1.454-2.782c2.38-1.33 4.236-2.04 7.264-2.04 4.329 0 6.77 2.194 6.801 5.873l.032 10.819zM92.703 12.611v10.325h-4.05v-9.15c0-2.318-1.39-3.74-3.678-3.74-2.72.03-4.328 2.04-4.328 4.76v8.13H76.63V6.397h4.018v3.091c1.174-2.193 3.246-3.213 5.936-3.244 3.801 0 6.12 2.442 6.12 6.367"/><path fill="#72deff" d="M95.177 7.077V5.22l3.987-2.686v4.543h4.73v2.938h-4.73v7.45c0 1.575.65 2.102 1.732 2.102.68 0 1.452-.248 2.35-.68l.927 3.029c-1.268.773-2.69 1.205-4.143 1.205-2.69 0-4.853-1.545-4.853-4.946v-8.16M117.403 13.384c-.093-2.442-1.73-3.988-4.235-3.988-2.38 0-4.05 1.546-4.42 3.988zm3.647 2.69h-12.21c.525 2.35 2.318 3.77 4.73 3.77 1.7 0 3.276-.648 4.45-1.854l2.164 2.257c-1.637 1.792-4.049 2.844-6.955 2.844-5.13 0-8.5-3.4-8.5-8.378 0-5.038 3.462-8.438 8.408-8.438 5.812 0 8.315 3.801 7.913 9.798M130.664 9.798c-2.659 0-4.513 1.98-4.513 4.884 0 2.968 1.854 4.946 4.513 4.946 1.916 0 3.462-.649 4.452-1.947l2.503 2.07c-1.452 2.103-3.926 3.34-7.171 3.34-4.946 0-8.347-3.4-8.347-8.378 0-5.038 3.431-8.438 8.408-8.438 3.03 0 5.441 1.112 6.925 3.029l-2.443 2.318c-1.05-1.144-2.504-1.824-4.327-1.824"/><path fill="#1eb980" d="M.126 22.827c0-.021 2.11-4.849 4.687-10.727L9.501 1.41l2.127-.026 2.126-.026 4.578 10.58c2.517 5.819 4.606 10.659 4.642 10.755.061.165-.064.174-2.1.15l-2.164-.028-.943-2.255-.944-2.255-5.33.025-5.332.026-.522 1.239a2379.9 2379.9 0 00-.947 2.254l-.426 1.016h-2.07c-1.139 0-2.07-.017-2.07-.038zm14.704-9.302l-1.892-4.558c-.74-1.785-1.374-3.246-1.408-3.246-.047 0-3.441 7.936-3.843 8.984-.043.11.616.133 3.819.133h3.87z"/><path fill="#72deff" d="M111.902 22.967c-2.263-.322-4.308-1.447-5.467-3.007-.554-.746-1.134-1.958-1.382-2.892-.145-.547-.184-1.05-.184-2.378 0-1.463.03-1.79.229-2.478.673-2.335 2.062-4.022 4.131-5.017 1.328-.639 2.14-.808 3.914-.815 1.796-.007 2.781.188 4.043.8 1.115.541 2.314 1.752 2.871 2.902.225.463.5 1.206.612 1.65.32 1.27.502 3.465.34 4.072l-.06.223h-12.17l.06.273c.032.15.22.607.415 1.016.783 1.632 2.379 2.576 4.358 2.576 1.343 0 3.03-.606 3.956-1.421l.463-.408 1.021 1.087 1.02 1.088-.367.382c-.959.994-2.618 1.839-4.332 2.205-.854.182-2.668.256-3.471.142zm5.502-9.895c0-.208-.071-.62-.16-.916-.337-1.14-.978-1.873-2.107-2.407-.631-.3-.705-.311-1.949-.311h-1.293l-.755.373c-1.186.585-1.945 1.55-2.3 2.918a8.993 8.993 0 00-.156.662c0 .033 1.962.06 4.36.06h4.36z"/><path fill="#1eb980" stroke="#fff" stroke-width=".03016212" d="M44.822 14.73L41.65 6.503c-.015-.041.855-.072 2.03-.072h2.055l.238.665c.13.366 1.105 3.197 2.165 6.291 1.06 3.094 1.947 5.626 1.969 5.626.022 0 .98-2.803 2.13-6.23 1.15-3.427 2.114-6.259 2.143-6.293.03-.034.927-.052 1.996-.04l1.942.021-3.122 8.188-3.122 8.187-2.052.021-2.053.021zM62.206 22.927c-2.723-.604-4.317-2.605-4.172-5.237.128-2.324 1.55-3.849 4.129-4.425.64-.143 1.1-.167 3.823-.199l3.095-.036-.035-.699c-.04-.812-.216-1.274-.674-1.781-.41-.454-.853-.7-1.609-.893-1.558-.399-3.472-.096-5.43.86-.502.246-.925.434-.94.418a56.06 56.06 0 01-.693-1.31c-.781-1.503-.849-1.284.614-1.991 1.691-.818 2.837-1.133 4.735-1.299 3.546-.31 6.195.792 7.306 3.04.599 1.21.653 1.927.657 8.65l.003 4.86h-3.872v-2.032l-.614.573c-.705.659-1.563 1.122-2.572 1.39-.847.224-2.96.287-3.751.111zm4.367-3.164c1.153-.397 1.937-1.033 2.323-1.883.133-.293.163-.531.164-1.306l.002-.948-1.956.001c-3.398.002-4.345.157-4.93.804-.349.386-.485.856-.434 1.497.082 1.025.69 1.686 1.855 2.015.701.199 2.13.112 2.976-.18zM76.645 14.658V6.43h3.952v1.533c0 .842.028 1.531.06 1.53.034 0 .17-.19.303-.42.333-.577 1.267-1.492 1.897-1.859 1.085-.631 2.947-1.029 4.267-.91 2.336.208 3.97 1.245 4.842 3.07.686 1.437.728 1.918.73 8.329l.001 5.183H88.664l-.001-4.941c-.001-3.99-.023-5.023-.115-5.368-.434-1.631-1.655-2.523-3.474-2.538-1.766-.015-3.098.733-3.845 2.159-.59 1.127-.578 1.009-.61 6.11l-.03 4.578h-3.944zM28.487 22.894a7.48 7.48 0 01-3.17-1.517c-2-1.61-3.108-4.649-2.814-7.715.355-3.716 2.367-6.26 5.632-7.125.695-.184.954-.21 2.046-.21 1.489 0 2.124.138 3.294.714.594.292.883.5 1.376.989.344.34.72.745.837.9l.213.283.004-4.578.004-4.578h3.952v22.829H35.91l-.004-1.351-.004-1.352-.213.283c-.117.155-.49.557-.828.892-.487.483-.774.688-1.377.984-1.108.544-1.52.636-3.02.672-1.048.025-1.419.002-1.976-.12zm4.009-3.283c1.543-.402 2.781-1.705 3.212-3.38.446-1.734.059-3.738-.96-4.974-.836-1.012-1.91-1.518-3.358-1.582-1.475-.065-2.542.331-3.512 1.306-.978.983-1.425 2.163-1.425 3.764.001 2.645 1.559 4.632 3.908 4.987.595.09 1.53.037 2.135-.12z"/></svg>