<svg xmlns="http://www.w3.org/2000/svg" width="520.136" height="215.792" viewBox="0 0 137.619 57.095"><path fill="#19b288" d="M15.301 36.538l-3.77-9.088-3.834 9.088zm1.484 3.555H6.213l-1.916 4.575H0L9.49 23.03h4.297l9.366 21.638H18.7zM35.857 36.445c0-2.967-1.917-5.038-4.699-5.038-2.751 0-4.668 2.103-4.698 5.038.03 2.968 1.916 5.04 4.698 5.04 2.782 0 4.699-2.072 4.699-5.04m4.019-14.713v22.936h-4.02V42.01c-1.174 1.824-3.09 2.843-5.563 2.843-4.73 0-7.882-3.462-7.882-8.5 0-5.008 3.152-8.377 7.789-8.377 2.535 0 4.451 1.02 5.657 2.874v-9.118zM45.78 28.13l4.327 12.581 4.235-12.581h4.05l-6.306 16.538h-4.142l-6.368-16.507zM69.055 38.919v-1.484h-4.172c-2.134 0-3.122.587-3.122 2.04 0 1.391 1.112 2.287 2.936 2.287 2.319 0 4.142-1.236 4.358-2.843m.032 5.75v-2.01c-1.145 1.453-2.999 2.194-5.349 2.194-3.554 0-5.78-2.194-5.78-5.131 0-3.06 2.257-4.946 6.275-4.976h4.822v-.434c0-1.916-1.267-3.06-3.74-3.06-1.545 0-3.215.526-4.914 1.546l-1.454-2.782c2.38-1.33 4.236-2.04 7.264-2.04 4.329 0 6.77 2.194 6.801 5.873l.032 10.82zM92.703 34.343v10.325h-4.05v-9.15c0-2.318-1.39-3.74-3.678-3.74-2.72.03-4.328 2.04-4.328 4.76v8.13H76.63V28.13h4.018v3.09c1.174-2.193 3.246-3.212 5.936-3.244 3.801 0 6.12 2.442 6.12 6.367"/><path fill="#72deff" d="M95.177 28.81v-1.858l3.987-2.685v4.543h4.73v2.937h-4.73v7.45c0 1.576.65 2.102 1.732 2.102.68 0 1.452-.248 2.35-.68l.927 3.03c-1.268.772-2.69 1.205-4.143 1.205-2.69 0-4.853-1.546-4.853-4.947v-8.16M117.403 35.116c-.093-2.442-1.73-3.988-4.235-3.988-2.38 0-4.05 1.546-4.42 3.988zm3.647 2.69h-12.21c.525 2.35 2.318 3.77 4.73 3.77 1.7 0 3.276-.648 4.45-1.854l2.164 2.257c-1.637 1.792-4.049 2.844-6.955 2.844-5.13 0-8.5-3.4-8.5-8.378 0-5.038 3.462-8.437 8.408-8.437 5.812 0 8.315 3.8 7.913 9.798M130.664 31.53c-2.659 0-4.513 1.98-4.513 4.885 0 2.968 1.854 4.945 4.513 4.945 1.916 0 3.462-.649 4.452-1.947l2.503 2.071c-1.452 2.102-3.926 3.34-7.171 3.34-4.946 0-8.347-3.401-8.347-8.379 0-5.038 3.431-8.437 8.408-8.437 3.03 0 5.441 1.112 6.925 3.028l-2.443 2.318c-1.05-1.143-2.504-1.824-4.327-1.824"/><path fill="#fff" d="M66.423 53.076h.49v1.752a2.977 2.977 0 01-1.793.628c-1.4 0-2.518-1.076-2.518-2.435 0-1.36 1.124-2.427 2.546-2.427.667 0 1.316.254 1.78.661l-.319.4a2.22 2.22 0 00-1.461-.56c-1.105 0-1.987.857-1.987 1.926 0 1.075.889 1.931 1.993 1.931.434 0 .897-.152 1.27-.406zM68.662 50.606v4.318h2.117v.51h-2.67v-4.828zM71.64 53.021c0 1.07.897 1.931 1.972 1.931 1.076 0 1.96-.862 1.96-1.93 0-1.07-.884-1.92-1.96-1.92-1.075 0-1.972.85-1.972 1.92m4.497 0c0 1.358-1.118 2.434-2.525 2.434-1.414 0-2.532-1.076-2.532-2.435 0-1.36 1.118-2.427 2.532-2.427 1.407 0 2.525 1.067 2.525 2.427M80.25 54.056c0-.538-.454-.856-1.241-.849h-1.456v1.717h1.456c.787.007 1.242-.31 1.242-.868m-.213-2.16c0-.497-.38-.78-1.029-.78h-1.456v1.58h1.456c.649 0 1.029-.289 1.029-.8m.566-.083c0 .566-.34.973-.898 1.091.697.103 1.104.558 1.104 1.221 0 .82-.649 1.31-1.745 1.31h-2.063v-4.829h2.035c.972 0 1.567.449 1.567 1.207M84.629 53.69l-1.098-2.483-1.082 2.483zm.22.51h-2.628l-.538 1.235h-.586l2.165-4.829h.573l2.16 4.829h-.601zM87.163 50.606v4.318h2.118v.51h-2.67v-4.828zM93.367 51.124c-.62 0-1.027.247-1.027.662 0 1.255 2.718.6 2.71 2.352 0 .8-.709 1.318-1.744 1.318a2.762 2.762 0 01-1.849-.738l.248-.477c.449.429 1.063.677 1.608.677.696 0 1.131-.283 1.131-.753.007-1.29-2.711-.606-2.711-2.337 0-.76.67-1.242 1.67-1.242.558 0 1.13.18 1.53.449l-.233.49a2.542 2.542 0 00-1.333-.401M99.317 50.606v.511h-2.725v1.62h2.437v.505h-2.437v1.682h2.815v.51h-3.366v-4.828zM102.226 53.393c.875 0 1.373-.393 1.373-1.152 0-.738-.498-1.124-1.373-1.124h-1.283v2.276zm1.324 2.041l-1.014-1.544c-.097.007-.2.014-.31.014h-1.283v1.53h-.552v-4.828h1.835c1.207 0 1.903.593 1.903 1.621 0 .794-.392 1.338-1.09 1.56l1.139 1.647zM105.078 50.606l1.663 4.209 1.67-4.209h.578l-1.973 4.829h-.572l-1.958-4.829zM110.173 55.434h-.552v-4.828h.552zM113.565 51.096c-1.089 0-1.965.849-1.965 1.917 0 1.063.876 1.925 1.965 1.925.532 0 1.05-.22 1.429-.58l.337.367a2.653 2.653 0 01-1.793.73c-1.394 0-2.497-1.075-2.497-2.442 0-1.352 1.118-2.42 2.517-2.42.663 0 1.304.269 1.766.703l-.33.4a2.047 2.047 0 00-1.429-.6M119.46 50.606v.511h-2.725v1.62h2.436v.505h-2.436v1.682h2.815v.51h-3.367v-4.828zM121.933 51.124c-.62 0-1.028.247-1.028.662 0 1.255 2.719.6 2.712 2.352 0 .8-.71 1.318-1.746 1.318a2.764 2.764 0 01-1.849-.738l.249-.477c.45.429 1.063.677 1.608.677.696 0 1.131-.283 1.131-.753.007-1.29-2.711-.606-2.711-2.337 0-.76.67-1.242 1.67-1.242.558 0 1.13.18 1.531.449l-.235.49a2.54 2.54 0 00-1.332-.401M127.087 55.434h-.55v-4.828h.55zM128.985 50.606l2.897 3.926v-3.926h.545v4.829h-.566l-2.897-3.919v3.919h-.552v-4.829zM135.824 51.096c-1.09 0-1.966.849-1.966 1.917 0 1.063.877 1.925 1.966 1.925a2.1 2.1 0 001.427-.58l.339.367a2.655 2.655 0 01-1.793.73c-1.394 0-2.498-1.075-2.498-2.442 0-1.352 1.118-2.42 2.519-2.42.661 0 1.302.269 1.766.703l-.333.4a2.045 2.045 0 00-1.427-.6"/><path fill="none" stroke="#fff" stroke-linecap="round" stroke-linejoin="round" stroke-miterlimit="10" stroke-width="1.34268068" d="M121.546 26.023c-2.743-2.838-6.577-4.61-10.835-4.593-2.435.011-4.724.614-6.752 1.652C99.781 12.966 89.804 5.866 78.184 5.917A27.64 27.64 0 0066.17 8.703C62.128 3.776 55.984.642 49.114.672c-11.961.052-21.637 9.671-21.827 21.574a14.736 14.736 0 00-6.717 3.777"/><path fill="#1eb980" d="M.126 44.559c0-.021 2.11-4.848 4.687-10.727l4.688-10.689 2.127-.027 2.126-.026 4.578 10.58c2.517 5.82 4.606 10.66 4.642 10.756.061.165-.064.173-2.1.148l-2.164-.026-.943-2.256-.944-2.255-5.33.026-5.332.025-.522 1.239a2379.9 2379.9 0 00-.947 2.254l-.426 1.016h-2.07c-1.139 0-2.07-.017-2.07-.038zm14.704-9.302L12.938 30.7c-.74-1.785-1.374-3.245-1.408-3.245-.047 0-3.441 7.935-3.843 8.983-.043.11.616.133 3.819.133h3.87z"/><path fill="#72deff" d="M111.902 44.699c-2.263-.322-4.308-1.447-5.467-3.006-.554-.747-1.134-1.959-1.382-2.893-.145-.547-.184-1.05-.184-2.378 0-1.463.03-1.79.229-2.478.673-2.335 2.062-4.022 4.131-5.017 1.328-.639 2.14-.808 3.914-.815 1.796-.006 2.781.189 4.043.8 1.115.541 2.314 1.752 2.871 2.902.225.463.5 1.206.612 1.651.32 1.269.502 3.464.34 4.072l-.06.223h-12.17l.06.272c.032.15.22.607.415 1.016.783 1.633 2.379 2.576 4.358 2.576 1.343 0 3.03-.606 3.956-1.42l.463-.409 1.021 1.088 1.02 1.087-.367.382c-.959.994-2.618 1.839-4.332 2.205-.854.182-2.668.256-3.471.142zm5.502-9.894c0-.208-.071-.62-.16-.917-.337-1.14-.978-1.872-2.107-2.407-.631-.3-.705-.311-1.949-.311h-1.293l-.755.373c-1.186.585-1.945 1.55-2.3 2.918a8.993 8.993 0 00-.156.662c0 .033 1.962.06 4.36.06h4.36z"/><path fill="#fff" stroke="#fff" stroke-width=".09895292" d="M29.702 56.982c-4.079-.358-7.861-2.023-10.971-4.828-.989-.892-2.304-2.436-2.304-2.705 0-.255.342-.59.603-.59.115 0 .345.16.52.363 1.808 2.098 3.2 3.294 5.088 4.375 4.868 2.785 10.89 3.02 15.936.62 1.53-.727 2.82-1.578 4.212-2.776.19-.164.436-.3.545-.3.109-.002.625.15 1.147.336 3.168 1.132 6.56 1.07 9.793-.181.868-.336.947-.35 1.164-.208.272.178.317.645.085.877-.208.208-1.615.738-2.68 1.009-1.519.386-2.398.472-4.239.413-1.817-.057-2.68-.207-4.266-.737l-.848-.283-.672.541c-3.689 2.97-8.536 4.475-13.113 4.074z"/><path fill="#fff" stroke="#fff" stroke-width=".09921749999999999" d="M20.214 26.507c-.154-.109-.22-.256-.22-.493 0-.299.09-.415.768-1 1.494-1.285 3.34-2.36 5.128-2.988l.793-.278.024-.442c.128-2.398.793-5.248 1.755-7.527 1.678-3.973 4.754-7.633 8.439-10.041A22.518 22.518 0 0154.578.712c4.135 1.008 8.119 3.323 10.977 6.377l.784.838.833-.352c2.556-1.08 5.237-1.78 8.167-2.131 1.295-.156 4.454-.156 5.896 0 9.706 1.046 18.114 6.908 22.504 15.69.28.56.523 1.034.54 1.053.018.02.447-.126.955-.322a15.495 15.495 0 0114.456 1.777c1.14.802 2.47 2.086 2.47 2.385 0 .267-.353.634-.61.634-.097 0-.546-.338-.997-.75-2.091-1.915-4.748-3.219-7.46-3.662-1.17-.191-3.541-.189-4.669.005-1.108.19-2.635.657-3.625 1.11-.514.234-.842.328-1.003.288-.194-.049-.409-.404-1.132-1.87-1.39-2.815-2.793-4.81-4.925-7-4.296-4.41-9.595-7.102-15.761-8.004-1.681-.246-5.675-.247-7.333-.001-2.58.381-5.085 1.09-7.242 2.046-.615.273-1.184.496-1.265.496-.08 0-.852-.706-1.716-1.57-1.681-1.681-2.702-2.496-4.373-3.492C51.393-.899 40.057.847 33.36 8.367c-3.213 3.607-5.114 8.142-5.394 12.863-.038.634-.123 1.21-.196 1.327-.087.14-.45.309-1.104.517a14.703 14.703 0 00-5.176 2.936c-.404.358-.806.65-.895.65-.088 0-.26-.069-.38-.153z"/><path fill="#fff" d="M64.55 55.37a2.494 2.494 0 01-1.832-1.696 2.349 2.349 0 01.971-2.608c.535-.35.934-.454 1.612-.423.565.026 1.02.185 1.452.507.141.105.139.126-.043.343l-.096.114-.249-.16c-1.294-.837-2.972-.156-3.198 1.297-.124.799.306 1.625 1.039 1.995.337.17.538.216.94.214.407 0 .733-.079 1.06-.253l.235-.125V53.094h.444V54.829l-.23.146c-.615.394-1.417.545-2.105.396zM68.135 53.033v-2.4h.524v4.316h2.097v.484h-2.621zM72.982 55.351a2.288 2.288 0 01-1.16-.663c-.5-.498-.701-.972-.702-1.657-.001-.948.483-1.719 1.351-2.15.36-.178.697-.252 1.142-.25.73.001 1.29.228 1.785.725.829.828.949 2.03.299 2.988-.582.858-1.7 1.273-2.715 1.007zm1.194-.47c.69-.172 1.275-.838 1.39-1.582.197-1.27-.939-2.38-2.24-2.19-1.69.247-2.296 2.337-.988 3.41.37.303.94.482 1.403.442.1-.009.296-.044.435-.08zM77.008 53.035v-2.407l1.28.014c1.239.012 1.29.016 1.521.109.305.122.6.394.696.642.213.556-.078 1.259-.589 1.422-.228.073-.223.097.037.175.297.089.595.341.728.617.13.271.132.717.004 1.003a1.26 1.26 0 01-.56.58c-.366.19-.53.21-1.857.232l-1.26.02zm2.676 1.815c.403-.15.63-.504.576-.9-.047-.342-.226-.541-.61-.678-.165-.058-.376-.075-1.16-.089l-.958-.017v1.79l.978-.017c.812-.014 1.012-.03 1.174-.09zm-.115-2.234c.275-.125.374-.229.445-.468.116-.388-.011-.722-.346-.91-.176-.098-.2-.1-1.158-.113l-.978-.013V52.74l.918-.016c.847-.014.933-.023 1.119-.107zM81.32 55c.106-.24.59-1.32 1.074-2.402l.882-1.968.278.012.278.011 1.037 2.321c.57 1.277 1.05 2.352 1.064 2.39.023.06-.005.069-.245.069h-.272l-.27-.615-.269-.615h-2.683l-.264.614-.263.614h-.27l-.271.002zm3.311-1.333c0-.033-1.02-2.351-1.071-2.433-.04-.063-.044-.054-.622 1.273-.27.62-.5 1.142-.51 1.16-.011.017.48.032 1.091.032.612 0 1.112-.014 1.112-.032zM86.648 53.033v-2.4h.484v4.316h2.138v.484h-2.622zM92.9 55.405c-.389-.065-.985-.34-1.309-.605l-.108-.088.104-.204c.057-.112.114-.204.127-.204.013 0 .09.051.171.114.449.35.886.503 1.438.502.592-.001.925-.148 1.072-.471.181-.399.014-.78-.442-1.01a7.16 7.16 0 00-.73-.264c-.836-.262-1.176-.467-1.358-.818-.091-.177-.119-.627-.053-.866.075-.269.42-.612.734-.73.653-.244 1.454-.186 2.13.156l.24.121-.106.211a4.167 4.167 0 01-.117.224c-.006.007-.122-.043-.257-.112-.363-.183-.72-.254-1.174-.235-.43.018-.639.098-.822.315-.084.1-.105.168-.105.335 0 .451.232.65 1.098.937 1.006.333 1.272.492 1.472.878.09.175.108.26.108.531 0 .27-.017.356-.106.524-.193.37-.53.604-1.044.725-.24.056-.727.074-.964.034zM96.045 53.033v-2.4h3.267v.484H96.57v1.654h2.42v.444h-2.42v1.734h2.824v.484h-3.348zM100.401 53.033v-2.4h1.1c1.223.002 1.442.03 1.854.25.573.306.858.977.718 1.694-.1.513-.386.89-.838 1.104-.141.067-.205.118-.186.15.016.027.27.398.564.825l.536.777-.29-.003-.292-.002-.516-.789c-.512-.783-.517-.788-.64-.764-.068.014-.43.025-.805.025h-.68v1.533h-.525zm2.267.338c.43-.091.73-.311.872-.64.037-.087.062-.275.064-.485.003-.294-.011-.374-.1-.545a1.16 1.16 0 00-.274-.33c-.288-.22-.48-.254-1.445-.254h-.86v2.3h.765c.42 0 .86-.021.978-.046zM105.998 54.273l-.973-2.4-.503-1.24h.543l.821 2.08c.452 1.143.834 2.086.848 2.095.015.01.4-.922.855-2.069l.828-2.086.269-.012.268-.011-.054.132-.98 2.402-.924 2.268h-.265l-.264.001zM128.437 53.033v-2.4l.272.001.273.001 1.411 1.918a102.015 102.015 0 001.462 1.96c.04.034.05-.354.05-1.918v-1.961h.485v4.8l-.252-.002-.252-.001-1.432-1.939a116.556 116.556 0 00-1.462-1.957c-.017-.01-.03.863-.03 1.94v1.958h-.525zM135.314 55.389c-.778-.175-1.399-.641-1.73-1.299-.475-.94-.301-1.98.455-2.734.496-.495 1.055-.723 1.772-.723.585 0 1.07.16 1.546.509l.196.144-.124.157c-.069.086-.14.167-.16.18-.02.011-.123-.046-.229-.127a1.995 1.995 0 00-2.67.209c-.71.758-.708 1.86.003 2.62.705.754 1.92.833 2.742.179l.147-.117.146.177.146.178-.258.184c-.593.423-1.36.602-1.982.463zM121.258 55.35c-.362-.093-.822-.317-1.047-.51l-.163-.14.108-.188a7.2 7.2 0 01.119-.203c.006-.008.08.038.164.103.237.184.41.277.738.397.254.093.368.111.706.112.498.001.809-.106 1.001-.345a.683.683 0 00.058-.756c-.133-.252-.407-.406-1.12-.631-.734-.233-.99-.361-1.216-.613a1.094 1.094 0 01.106-1.57c.228-.2.523-.319.943-.377.488-.068 1.095.042 1.581.288l.24.121-.105.211a7.916 7.916 0 01-.112.219 1.96 1.96 0 01-.248-.11c-.547-.267-1.381-.323-1.752-.118-.241.133-.364.322-.364.56 0 .434.243.63 1.159.932.35.116.741.266.87.333.557.292.788.838.61 1.44-.09.298-.428.638-.763.763a2.477 2.477 0 01-1.513.082zM126.541 53.033v-2.4h.525v4.8h-.525zM112.924 55.356c-.75-.204-1.358-.705-1.651-1.36a3.203 3.203 0 01-.219-.991c.004-.834.574-1.734 1.33-2.103.457-.222.741-.28 1.268-.26.529.02.827.11 1.258.377.406.251.408.256.228.46l-.152.17-.161-.129c-1.188-.948-2.988-.275-3.217 1.204-.18 1.16.745 2.225 1.933 2.225.478 0 .917-.144 1.272-.416l.19-.146.145.17.146.17-.12.1c-.607.508-1.53.725-2.25.529zM116.216 53.033v-2.4H119.443v.484H116.7v1.654h2.46v.444h-2.46v1.734h2.824v.484h-3.308zM109.642 53.033v-2.4h.524v4.8h-.524z"/><path fill="#1eb980" stroke="#fff" stroke-width=".03016212" d="M44.822 36.463l-3.173-8.229c-.015-.041.855-.072 2.03-.072h2.055l.238.666c.13.366 1.105 3.196 2.165 6.29s1.947 5.626 1.969 5.626c.022 0 .98-2.803 2.13-6.23 1.15-3.427 2.114-6.259 2.143-6.293.03-.034.927-.052 1.996-.04l1.942.021-3.122 8.188-3.122 8.188-2.052.02-2.053.022zM62.206 44.66c-2.723-.605-4.317-2.606-4.172-5.238.128-2.324 1.55-3.849 4.129-4.425.64-.143 1.1-.167 3.823-.199l3.095-.036-.035-.699c-.04-.812-.216-1.274-.674-1.781-.41-.454-.853-.7-1.609-.893-1.558-.399-3.472-.095-5.43.86-.502.246-.925.434-.94.418a56.06 56.06 0 01-.693-1.31c-.781-1.503-.849-1.283.614-1.991 1.691-.818 2.837-1.132 4.735-1.298 3.546-.31 6.195.791 7.306 3.038.599 1.211.653 1.929.657 8.652l.003 4.86h-3.872v-2.033l-.614.573c-.705.659-1.563 1.122-2.572 1.39-.847.224-2.96.287-3.751.111zm4.367-3.165c1.153-.397 1.937-1.033 2.323-1.883.133-.293.163-.53.164-1.306l.002-.948-1.956.001c-3.398.003-4.345.157-4.93.805-.349.385-.485.855-.434 1.497.082 1.024.69 1.685 1.855 2.015.701.198 2.13.111 2.976-.18zM76.645 36.39v-8.228h3.952v1.533c0 .843.028 1.532.06 1.53.034 0 .17-.19.303-.42.333-.577 1.267-1.492 1.897-1.858 1.085-.632 2.947-1.03 4.267-.911 2.336.208 3.97 1.245 4.842 3.07.686 1.438.728 1.918.73 8.33l.001 5.182H88.664l-.001-4.94c-.001-3.992-.023-5.024-.115-5.368-.434-1.632-1.655-2.524-3.474-2.54-1.766-.014-3.098.734-3.845 2.16-.59 1.127-.578 1.009-.61 6.11l-.03 4.578h-3.944zM28.487 44.626a7.48 7.48 0 01-3.17-1.516c-2-1.61-3.108-4.65-2.814-7.716.355-3.716 2.367-6.26 5.632-7.124.695-.184.954-.211 2.046-.21 1.489 0 2.124.137 3.294.713.594.292.883.5 1.376.989.344.34.72.745.837.9l.213.283.004-4.578.004-4.577h3.952v22.828H35.91l-.004-1.351-.004-1.351-.213.282c-.117.155-.49.557-.828.892-.487.483-.774.688-1.377.984-1.108.545-1.52.636-3.02.672-1.048.025-1.419.003-1.976-.12zm4.009-3.282c1.543-.402 2.781-1.706 3.212-3.381.446-1.734.059-3.737-.96-4.973-.836-1.013-1.91-1.52-3.358-1.583-1.475-.065-2.542.332-3.512 1.306-.978.984-1.425 2.163-1.425 3.765.001 2.644 1.559 4.632 3.908 4.986.595.09 1.53.037 2.135-.12z"/></svg>