<?xml version="1.0" encoding="UTF-8" standalone="no"?>
<svg
   xmlns:dc="http://purl.org/dc/elements/1.1/"
   xmlns:cc="http://creativecommons.org/ns#"
   xmlns:rdf="http://www.w3.org/1999/02/22-rdf-syntax-ns#"
   xmlns:svg="http://www.w3.org/2000/svg"
   xmlns="http://www.w3.org/2000/svg"
   xmlns:sodipodi="http://sodipodi.sourceforge.net/DTD/sodipodi-0.dtd"
   xmlns:inkscape="http://www.inkscape.org/namespaces/inkscape"
   sodipodi:docname="logo2.svg"
   inkscape:version="1.0 (4035a4fb49, 2020-05-01)"
   id="svg1704"
   version="1.1"
   viewBox="0 0 137.61925 57.095081"
   height="57.095081mm"
   width="137.61925mm">
  <defs
     id="defs1698" />
  <sodipodi:namedview
     inkscape:window-maximized="1"
     inkscape:window-y="-8"
     inkscape:window-x="-8"
     inkscape:window-height="1377"
     inkscape:window-width="3440"
     showgrid="false"
     inkscape:document-rotation="0"
     inkscape:current-layer="layer1"
     inkscape:document-units="mm"
     inkscape:cy="99.732063"
     inkscape:cx="141.51004"
     inkscape:zoom="0.81"
     inkscape:pageshadow="2"
     inkscape:pageopacity="0.0"
     borderopacity="1.0"
     bordercolor="#666666"
     pagecolor="#ffffff"
     id="base" />
  <metadata
     id="metadata1701">
    <rdf:RDF>
      <cc:Work
         rdf:about="">
        <dc:format>image/svg+xml</dc:format>
        <dc:type
           rdf:resource="http://purl.org/dc/dcmitype/StillImage" />
        <dc:title></dc:title>
      </cc:Work>
    </rdf:RDF>
  </metadata>
  <g
     transform="translate(-34.755856,-107.52575)"
     id="layer1"
     inkscape:groupmode="layer"
     inkscape:label="Layer 1">
    <g
       id="g24"
       transform="matrix(0.35277777,0,0,-0.35277777,50.057239,144.06359)">
      <path
         d="M 0,0 -10.69,25.76 -21.557,0 Z m 4.205,-10.079 h -29.967 l -5.432,-12.967 h -12.18 l 26.9,61.337 h 12.18 l 26.55,-61.337 H 9.637 Z"
         style="fill:#19b288;fill-opacity:1;fill-rule:nonzero;stroke:none"
         id="path26" />
    </g>
    <path
       id="path38"
       style="fill:#19b288;fill-opacity:1;fill-rule:nonzero;stroke:none;stroke-width:0.352777"
       d="m 70.612579,143.97091 c 0,-2.96686 -1.91629,-5.03802 -4.69865,-5.03802 -2.75131,0 -4.6676,2.10256 -4.6983,5.03802 0.0307,2.96792 1.91629,5.03908 4.6983,5.03908 2.78236,0 4.69865,-2.07116 4.69865,-5.03908 m 4.01884,-14.71295 v 22.93585 h -4.01884 v -2.65818 c -1.17511,1.82421 -3.09104,2.84339 -5.56401,2.84339 -4.7297,0 -7.88212,-3.46181 -7.88212,-8.50089 0,-5.00768 3.15242,-8.37636 7.78933,-8.37636 2.53506,0 4.45135,1.02024 5.6568,2.87444 v -9.11825 z" />
    <g
       transform="matrix(0.35277777,0,0,-0.35277777,80.535829,135.65531)"
       id="g40">
      <path
         id="path42"
         style="fill:#19b288;fill-opacity:1;fill-rule:nonzero;stroke:none"
         d="M 0,0 12.267,-35.665 24.271,0 H 35.75 L 17.875,-46.881 H 6.134 L -11.917,-0.09 Z" />
    </g>
    <g
       transform="matrix(0.35277777,0,0,-0.35277777,103.81108,146.44431)"
       id="g44">
      <path
         id="path46"
         style="fill:#19b288;fill-opacity:1;fill-rule:nonzero;stroke:none"
         d="m 0,0 v 4.206 h -11.828 c -6.047,0 -8.849,-1.665 -8.849,-5.784 0,-3.943 3.152,-6.483 8.324,-6.483 6.572,0 11.741,3.504 12.353,8.061 m 0.089,-16.298 v 5.695 c -3.244,-4.119 -8.5,-6.22 -15.161,-6.22 -10.075,0 -16.385,6.22 -16.385,14.546 0,8.673 6.398,14.019 17.788,14.106 H 0 v 1.229 c 0,5.432 -3.591,8.673 -10.601,8.673 -4.381,0 -9.115,-1.49 -13.932,-4.381 l -4.119,7.885 c 6.746,3.769 12.005,5.784 20.591,5.784 12.269,0 19.19,-6.221 19.277,-16.648 l 0.09,-30.669 z" />
    </g>
    <g
       transform="matrix(0.35277777,0,0,-0.35277777,127.45873,141.86924)"
       id="g48">
      <path
         id="path50"
         style="fill:#19b288;fill-opacity:1;fill-rule:nonzero;stroke:none"
         d="m 0,0 v -29.267 h -11.478 v 25.936 c 0,6.572 -3.943,10.603 -10.428,10.603 -7.71,-0.086 -12.267,-5.783 -12.267,-13.492 v -23.047 h -11.391 v 46.881 h 11.391 V 8.852 c 3.328,6.219 9.201,9.108 16.824,9.198 C -6.572,18.05 0,11.126 0,0" />
    </g>
    <g
       style="fill:#72deff;fill-opacity:1"
       transform="matrix(0.35277777,0,0,-0.35277777,129.93265,136.33539)"
       id="g52">
      <path
         id="path54"
         style="fill:#72deff;fill-opacity:1;fill-rule:nonzero;stroke:none"
         d="m 0,0 v 5.265 l 11.303,7.613 V 0 H 24.709 V -8.327 H 11.303 v -21.118 c 0,-4.466 1.841,-5.958 4.909,-5.958 1.925,0 4.116,0.702 6.659,1.928 l 2.629,-8.587 c -3.593,-2.19 -7.625,-3.417 -11.744,-3.417 C 6.134,-45.479 0,-41.097 0,-31.458 v 23.131" />
    </g>
    <g
       style="fill:#72deff;fill-opacity:1"
       transform="matrix(0.35277777,0,0,-0.35277777,152.15902,142.64214)"
       id="g56">
      <path
         id="path58"
         style="fill:#72deff;fill-opacity:1;fill-rule:nonzero;stroke:none"
         d="M 0,0 C -0.264,6.924 -4.907,11.305 -12.004,11.305 -18.752,11.305 -23.483,6.924 -24.536,0 Z m 10.338,-7.623 h -34.611 c 1.489,-6.661 6.571,-10.69 13.406,-10.69 4.82,0 9.288,1.839 12.618,5.258 l 6.133,-6.398 c -4.643,-5.08 -11.478,-8.062 -19.715,-8.062 -14.544,0 -24.097,9.638 -24.097,23.748 0,14.282 9.816,23.918 23.835,23.918 16.474,0 23.571,-10.774 22.431,-27.774" />
    </g>
    <g
       style="fill:#72deff;fill-opacity:1"
       transform="matrix(0.35277777,0,0,-0.35277777,165.41973,139.05615)"
       id="g60">
      <path
         id="path62"
         style="fill:#72deff;fill-opacity:1;fill-rule:nonzero;stroke:none"
         d="m 0,0 c -7.536,0 -12.792,-5.61 -12.792,-13.845 0,-8.413 5.256,-14.019 12.792,-14.019 5.432,0 9.813,1.839 12.619,5.519 l 7.097,-5.87 c -4.118,-5.958 -11.13,-9.465 -20.328,-9.465 -14.021,0 -23.661,9.638 -23.661,23.748 0,14.282 9.727,23.918 23.834,23.918 8.587,0 15.424,-3.152 19.63,-8.584 L 12.267,-5.17 C 9.288,-1.928 5.167,0 0,0" />
    </g>
    <g
       style="fill:#ffffff;fill-opacity:1"
       transform="matrix(0.35277777,0,0,-0.35277777,101.17904,160.60177)"
       id="g64">
      <path
         id="path66"
         style="fill:#ffffff;fill-opacity:1;fill-rule:nonzero;stroke:none"
         d="m 0,0 h 1.39 v -4.966 c -1.348,-1.075 -3.246,-1.779 -5.085,-1.779 -3.97,0 -7.137,3.05 -7.137,6.901 0,3.854 3.187,6.881 7.216,6.881 1.893,0 3.732,-0.721 5.046,-1.875 L 0.528,4.029 c -1.113,0.996 -2.619,1.584 -4.144,1.584 -3.13,0 -5.632,-2.426 -5.632,-5.457 0,-3.048 2.52,-5.474 5.65,-5.474 1.231,0 2.542,0.431 3.598,1.152 z" />
    </g>
    <g
       style="fill:#ffffff;fill-opacity:1"
       transform="matrix(0.35277777,0,0,-0.35277777,103.4178,158.13198)"
       id="g68">
      <path
         id="path70"
         style="fill:#ffffff;fill-opacity:1;fill-rule:nonzero;stroke:none"
         d="m 0,0 v -12.24 h 6.002 v -1.447 H -1.566 V 0 Z" />
    </g>
    <g
       style="fill:#ffffff;fill-opacity:1"
       transform="matrix(0.35277777,0,0,-0.35277777,106.3956,160.54681)"
       id="g72">
      <path
         id="path74"
         style="fill:#ffffff;fill-opacity:1;fill-rule:nonzero;stroke:none"
         d="m 0,0 c 0,-3.031 2.542,-5.474 5.59,-5.474 3.051,0 5.556,2.443 5.556,5.474 0,3.031 -2.505,5.438 -5.556,5.438 C 2.542,5.438 0,3.031 0,0 m 12.747,0 c 0,-3.851 -3.167,-6.901 -7.157,-6.901 -4.007,0 -7.177,3.05 -7.177,6.901 0,3.854 3.17,6.881 7.177,6.881 3.99,0 7.157,-3.027 7.157,-6.881" />
    </g>
    <g
       style="fill:#ffffff;fill-opacity:1"
       transform="matrix(0.35277777,0,0,-0.35277777,115.00659,161.5819)"
       id="g76">
      <path
         id="path78"
         style="fill:#ffffff;fill-opacity:1;fill-rule:nonzero;stroke:none"
         d="M 0,0 C 0,1.526 -1.289,2.426 -3.52,2.406 H -7.646 V -2.46 H -3.52 C -1.289,-2.48 0,-1.583 0,0 m -0.604,6.121 c 0,1.41 -1.077,2.211 -2.916,2.211 H -7.646 V 3.854 h 4.126 c 1.839,0 2.916,0.82 2.916,2.267 m 1.605,0.238 c 0,-1.604 -0.962,-2.758 -2.545,-3.093 1.975,-0.292 3.13,-1.583 3.13,-3.462 0,-2.324 -1.839,-3.711 -4.946,-3.711 H -9.209 V 9.779 h 5.769 c 2.755,0 4.441,-1.271 4.441,-3.42" />
    </g>
    <g
       style="fill:#ffffff;fill-opacity:1"
       transform="matrix(0.35277777,0,0,-0.35277777,119.38463,161.2155)"
       id="g80">
      <path
         id="path82"
         style="fill:#ffffff;fill-opacity:1;fill-rule:nonzero;stroke:none"
         d="M 0,0 -3.113,7.038 -6.18,0 Z m 0.625,-1.447 h -7.45 l -1.526,-3.499 h -1.66 L -3.874,8.741 H -2.25 L 3.871,-4.946 H 2.168 Z" />
    </g>
    <g
       style="fill:#ffffff;fill-opacity:1"
       transform="matrix(0.35277777,0,0,-0.35277777,121.91902,158.13198)"
       id="g84">
      <path
         id="path86"
         style="fill:#ffffff;fill-opacity:1;fill-rule:nonzero;stroke:none"
         d="m 0,0 v -12.24 h 6.004 v -1.447 H -1.564 V 0 Z" />
    </g>
    <g
       style="fill:#ffffff;fill-opacity:1"
       transform="matrix(0.35277777,0,0,-0.35277777,128.12329,158.64961)"
       id="g88">
      <path
         id="path90"
         style="fill:#ffffff;fill-opacity:1;fill-rule:nonzero;stroke:none"
         d="m 0,0 c -1.757,0 -2.912,-0.701 -2.912,-1.876 0,-3.559 7.705,-1.703 7.684,-6.669 0,-2.268 -2.011,-3.734 -4.945,-3.734 -1.995,0 -3.951,0.862 -5.242,2.091 l 0.704,1.351 c 1.271,-1.214 3.011,-1.918 4.557,-1.918 1.973,0 3.207,0.803 3.207,2.134 0.019,3.655 -7.687,1.719 -7.687,6.626 0,2.151 1.898,3.521 4.733,3.521 1.584,0 3.206,-0.51 4.341,-1.274 L 3.776,-1.135 C 2.542,-0.332 1.098,0 0,0" />
    </g>
    <g
       style="fill:#ffffff;fill-opacity:1"
       transform="matrix(0.35277777,0,0,-0.35277777,134.07313,158.13198)"
       id="g92">
      <path
         id="path94"
         style="fill:#ffffff;fill-opacity:1;fill-rule:nonzero;stroke:none"
         d="m 0,0 v -1.448 h -7.724 v -4.594 h 6.907 v -1.43 h -6.907 v -4.768 h 7.979 v -1.447 H -9.288 V 0 Z" />
    </g>
    <g
       style="fill:#ffffff;fill-opacity:1"
       transform="matrix(0.35277777,0,0,-0.35277777,136.9815,160.91906)"
       id="g96">
      <path
         id="path98"
         style="fill:#ffffff;fill-opacity:1;fill-rule:nonzero;stroke:none"
         d="M 0,0 C 2.481,0 3.893,1.115 3.893,3.266 3.893,5.357 2.481,6.453 0,6.453 H -3.637 V 0 Z M 3.755,-5.786 0.88,-1.408 C 0.605,-1.427 0.313,-1.447 0,-1.447 H -3.637 V -5.786 H -5.201 V 7.9 H 0 c 3.423,0 5.395,-1.68 5.395,-4.594 0,-2.251 -1.112,-3.794 -3.087,-4.421 l 3.226,-4.671 z" />
    </g>
    <g
       style="fill:#ffffff;fill-opacity:1"
       transform="matrix(0.35277777,0,0,-0.35277777,139.83403,158.13198)"
       id="g100">
      <path
         id="path102"
         style="fill:#ffffff;fill-opacity:1;fill-rule:nonzero;stroke:none"
         d="M 0,0 4.714,-11.93 9.445,0 h 1.642 L 5.494,-13.687 H 3.871 L -1.68,0 Z" />
    </g>
    <path
       id="path104"
       style="fill:#ffffff;fill-opacity:1;fill-rule:nonzero;stroke:none;stroke-width:0.352777"
       d="m 144.92927,162.96023 h -0.55281 v -4.82847 h 0.55281 z" />
    <g
       style="fill:#ffffff;fill-opacity:1"
       transform="matrix(0.35277777,0,0,-0.35277777,148.32119,158.6217)"
       id="g106">
      <path
         id="path108"
         style="fill:#ffffff;fill-opacity:1;fill-rule:nonzero;stroke:none"
         d="m 0,0 c -3.087,0 -5.571,-2.406 -5.571,-5.434 0,-3.014 2.484,-5.458 5.571,-5.458 1.507,0 2.973,0.625 4.049,1.643 l 0.956,-1.038 c -1.347,-1.269 -3.186,-2.071 -5.082,-2.071 -3.952,0 -7.08,3.05 -7.08,6.924 0,3.831 3.17,6.858 7.137,6.858 1.878,0 3.697,-0.76 5.006,-1.992 L 4.049,-1.703 C 2.994,-0.644 1.507,0 0,0" />
    </g>
    <g
       style="fill:#ffffff;fill-opacity:1"
       transform="matrix(0.35277777,0,0,-0.35277777,154.21522,158.13198)"
       id="g110">
      <path
         id="path112"
         style="fill:#ffffff;fill-opacity:1;fill-rule:nonzero;stroke:none"
         d="m 0,0 v -1.448 h -7.722 v -4.594 h 6.904 v -1.43 h -6.904 v -4.768 h 7.979 v -1.447 H -9.286 V 0 Z" />
    </g>
    <g
       style="fill:#ffffff;fill-opacity:1"
       transform="matrix(0.35277777,0,0,-0.35277777,156.68915,158.64961)"
       id="g114">
      <path
         id="path116"
         style="fill:#ffffff;fill-opacity:1;fill-rule:nonzero;stroke:none"
         d="m 0,0 c -1.76,0 -2.914,-0.701 -2.914,-1.876 0,-3.559 7.706,-1.703 7.687,-6.669 0,-2.268 -2.013,-3.734 -4.949,-3.734 -1.992,0 -3.948,0.862 -5.241,2.091 l 0.704,1.351 c 1.274,-1.214 3.013,-1.918 4.56,-1.918 1.972,0 3.206,0.803 3.206,2.134 0.02,3.655 -7.687,1.719 -7.687,6.626 0,2.151 1.898,3.521 4.733,3.521 1.583,0 3.207,-0.51 4.342,-1.274 L 3.774,-1.135 C 2.542,-0.332 1.095,0 0,0" />
    </g>
    <path
       id="path118"
       style="fill:#ffffff;fill-opacity:1;fill-rule:nonzero;stroke:none;stroke-width:0.352777"
       d="m 161.8432,162.96023 h -0.55069 v -4.82847 h 0.55069 z" />
    <g
       style="fill:#ffffff;fill-opacity:1"
       transform="matrix(0.35277777,0,0,-0.35277777,163.74058,158.13198)"
       id="g120">
      <path
         id="path122"
         style="fill:#ffffff;fill-opacity:1;fill-rule:nonzero;stroke:none"
         d="M 0,0 8.212,-11.127 V 0 H 9.758 V -13.687 H 8.153 L -0.059,-2.58 V -13.687 H -1.623 V 0 Z" />
    </g>
    <g
       style="fill:#ffffff;fill-opacity:1"
       transform="matrix(0.35277777,0,0,-0.35277777,170.57942,158.6217)"
       id="g124">
      <path
         id="path126"
         style="fill:#ffffff;fill-opacity:1;fill-rule:nonzero;stroke:none"
         d="m 0,0 c -3.087,0 -5.573,-2.406 -5.573,-5.434 0,-3.014 2.486,-5.458 5.573,-5.458 1.507,0 2.974,0.625 4.047,1.643 l 0.959,-1.038 c -1.348,-1.269 -3.187,-2.071 -5.082,-2.071 -3.951,0 -7.081,3.05 -7.081,6.924 0,3.831 3.17,6.858 7.14,6.858 1.875,0 3.692,-0.76 5.006,-1.992 L 4.047,-1.703 C 2.992,-0.644 1.507,0 0,0" />
    </g>
    <g
       style="stroke:#ffffff;stroke-opacity:1"
       transform="matrix(0.35277777,0,0,-0.35277777,156.30176,133.54862)"
       id="g128">
      <path
         id="path130"
         style="fill:none;stroke:#ffffff;stroke-width:3.806;stroke-linecap:round;stroke-linejoin:round;stroke-miterlimit:10;stroke-dasharray:none;stroke-opacity:1"
         d="m 0,0 c -7.774,8.044 -18.643,13.07 -30.714,13.018 -6.902,-0.03 -13.389,-1.74 -19.138,-4.682 -11.845,28.675 -40.125,48.802 -73.064,48.658 -12.212,-0.052 -23.76,-2.887 -34.054,-7.898 -11.459,13.967 -28.875,22.851 -48.348,22.766 -33.906,-0.148 -61.334,-27.415 -61.873,-61.156 C -274.501,8.875 -281.015,5.098 -286.23,0" />
    </g>
    <g
       style="fill:#ffffff;fill-opacity:1;stroke:#ffffff;stroke-opacity:1"
       transform="matrix(0.35277777,0,0,-0.35277777,51.765489,156.97134)"
       id="g132">
      <path
         id="path134"
         style="fill:#ffffff;fill-opacity:1;stroke:#ffffff;stroke-width:3.582;stroke-linecap:round;stroke-linejoin:round;stroke-miterlimit:10;stroke-dasharray:none;stroke-opacity:1"
         d="m 0,0 c 9.277,-12.088 23.873,-19.882 40.288,-19.882 13.323,0 25.41,5.174 34.465,13.572 4.988,-2.188 10.489,-3.422 16.287,-3.422 6.086,0 11.86,1.338 17.04,3.74" />
    </g>
    <path
       transform="scale(0.26458333)"
       id="path1812"
       d="m 131.83521,574.80791 c 0,-0.0795 7.97307,-18.32391 17.71793,-40.54307 l 17.71793,-40.39848 8.03751,-0.1007 8.03752,-0.10069 17.29911,39.98834 c 9.51451,21.99358 17.41016,40.28661 17.5459,40.65118 0.23207,0.62331 -0.24135,0.65683 -7.93478,0.5618 l -8.18158,-0.10106 -3.56459,-8.52377 -3.56459,-8.52379 -20.15019,0.0968 -20.15018,0.0968 -1.97068,4.68165 c -1.08388,2.57491 -2.69531,6.40918 -3.58097,8.5206 l -1.61029,3.83895 h -7.82403 c -4.30321,0 -7.82402,-0.0651 -7.82402,-0.14459 z m 55.57582,-35.15503 c -1.1347,-2.72941 -4.3517,-10.48221 -7.14891,-17.22847 -2.7972,-6.74625 -5.1935,-12.26592 -5.32511,-12.26592 -0.17438,0 -13.00451,29.99288 -14.52403,33.95269 -0.16014,0.41733 2.32768,0.50424 14.43382,0.50424 h 14.62731 z"
       style="fill:#1eb980;fill-opacity:1;stroke:none;stroke-width:0.374532" />
    <path
       transform="scale(0.26458333)"
       id="path1814"
       d="m 135.26558,574.67869 c -2.2552,-0.0954 -3.07198,-0.25794 -2.93712,-0.58458 1.48987,-3.60839 34.85685,-79.54918 35.03148,-79.72906 0.13368,-0.13771 3.76743,-0.30117 8.07499,-0.36325 l 7.83194,-0.11287 2.32941,5.41943 c 1.28118,2.98068 9.09108,21.06615 17.35533,40.18993 8.26426,19.12379 15.02592,34.84343 15.02592,34.93255 0,0.0891 -3.56541,0.11654 -7.92313,0.061 l -7.92313,-0.10109 -3.44657,-8.2397 -3.44656,-8.2397 -20.37188,-0.0924 -20.37188,-0.0924 -3.57179,8.51935 -3.57178,8.51934 -4.48065,0.0228 c -2.46436,0.0125 -5.88642,-0.0367 -7.60458,-0.10934 z m 54.24753,-30.28115 c 0,-0.26993 -10.33855,-25.14472 -12.635,-30.4001 -0.92263,-2.11142 -1.80502,-3.83895 -1.96087,-3.83895 -0.15585,0 -2.6513,5.51967 -5.54543,12.26592 -7.68788,17.92048 -9.1179,21.4395 -8.87325,21.83536 0.23616,0.38212 29.01455,0.51878 29.01455,0.13777 z"
       style="display:none;fill:#1eb980;fill-opacity:1;stroke:none;stroke-width:0.374532" />
    <path
       transform="scale(0.26458333)"
       id="path2639"
       d="m 240.57335,575.34202 c -5.66391,-1.03243 -10.6969,-3.45985 -14.52804,-7.0069 -6.00512,-5.55982 -9.20117,-12.9969 -9.64446,-22.44227 -0.25533,-5.44061 0.26711,-9.53955 1.80976,-14.19878 1.52822,-4.61564 3.67787,-8.0848 7.12028,-11.49089 2.29751,-2.27327 3.63808,-3.23553 6.39122,-4.58761 5.24186,-2.57432 7.35105,-3.02697 13.97077,-2.99823 5.04801,0.0219 5.92494,0.126 8.6436,1.02595 4.02655,1.33291 6.89436,3.25388 10.17663,6.81674 l 2.71535,2.94747 v -17.29866 -17.29866 h 7.30338 7.30337 v 43.07116 43.07116 h -7.30337 -7.30338 v -4.86891 c 0,-2.67791 -0.1339,-4.86892 -0.29756,-4.86892 -0.16367,0 -0.93905,0.84116 -1.72307,1.86923 -1.46221,1.91738 -4.9858,4.79514 -7.333,5.98898 -3.11213,1.58288 -6.476,2.33147 -11.05835,2.46094 -2.47191,0.0698 -5.28132,-0.0165 -6.24313,-0.1918 z m 13.13952,-12.57726 c 6.1875,-1.45849 10.64161,-5.93515 12.57725,-12.64094 0.80271,-2.78086 0.81474,-9.01054 0.0231,-11.97536 -1.89048,-7.08042 -7.49263,-12.11148 -14.46056,-12.9864 -6.0213,-0.75606 -11.45345,1.02017 -15.2677,4.99231 -3.53558,3.68195 -4.88967,7.01291 -5.19351,12.77566 -0.34232,6.49266 1.34707,11.38773 5.30737,15.37825 4.37186,4.40523 10.46291,6.00066 17.014,4.45648 z"
       style="display:none;fill:#1eb980;fill-opacity:1;stroke-width:0.374532" />
    <path
       transform="scale(0.26458333)"
       id="path2641"
       d="m 300.81104,544.18322 c -6.52808,-16.92311 -11.8051,-30.83342 -11.72671,-30.91181 0.0784,-0.0784 3.50485,-0.24661 7.61434,-0.37383 l 7.47182,-0.23131 5.71532,16.63001 c 3.14342,9.1465 6.82347,19.87439 8.17788,23.83974 1.3544,3.96536 2.56325,7.20759 2.68633,7.20496 0.12307,-0.003 3.76309,-10.54992 8.08893,-23.43842 4.32584,-12.8885 7.96165,-23.59226 8.07957,-23.78613 0.12568,-0.20663 3.23542,-0.31038 7.51484,-0.25072 l 7.30043,0.10177 -11.81378,30.99251 -11.81377,30.99251 h -7.71298 -7.71298 z"
       style="display:none;fill:#1eb980;fill-opacity:1;stroke-width:0.374532" />
    <path
       transform="scale(0.26458333)"
       id="path2643"
       d="m 366.32535,575.11103 c -9.7156,-2.17843 -15.57629,-9.14545 -15.57629,-18.51667 0,-7.4328 3.35898,-12.8319 9.93584,-15.97054 4.61919,-2.2044 6.51262,-2.45539 19.97292,-2.64761 l 12.1185,-0.17305 -0.26236,-2.49275 c -0.36205,-3.43996 -1.44565,-5.76169 -3.58811,-7.68795 -2.6821,-2.41144 -5.02786,-3.05221 -11.02323,-3.01113 -5.72277,0.0392 -9.23266,0.91888 -14.77717,3.7035 l -3.33401,1.67444 -1.29451,-2.33112 c -0.71199,-1.28211 -1.89917,-3.53957 -2.63818,-5.01656 l -1.34366,-2.68545 1.95594,-1.10071 c 8.49169,-4.77869 16.6683,-6.73123 26.57232,-6.34534 14.66371,0.57133 22.5781,7.06866 23.8985,19.6195 0.19152,1.82039 0.35121,12.20025 0.35487,23.06636 l 0.007,19.75655 H 400 392.69663 v -3.78566 -3.78566 l -2.24558,2.07901 c -2.45543,2.27329 -6.41584,4.39809 -9.92671,5.32576 -3.29006,0.86933 -10.98588,1.04552 -14.19899,0.32508 z m 14.1662,-11.20689 c 5.34072,-1.13143 9.56785,-4.01017 11.18869,-7.61968 0.55171,-1.22863 0.83128,-2.77915 0.94613,-5.24729 l 0.16301,-3.50335 -10.6269,0.17603 c -6.43183,0.10654 -11.16177,0.34523 -11.98182,0.60464 -4.40725,1.39419 -6.45137,5.2985 -5.17687,9.88795 1.35708,4.88681 7.9235,7.30418 15.48776,5.7017 z"
       style="display:none;fill:#1eb980;fill-opacity:1;stroke-width:0.374532" />
    <path
       transform="scale(0.26458333)"
       id="path2645"
       d="m 421.16105,543.86636 v -31.08614 h 7.48112 7.48113 l 0.10314,5.89887 0.10315,5.89888 1.00581,-1.71088 c 1.47926,-2.5162 5.7257,-6.33488 8.58455,-7.71981 4.25717,-2.06231 6.63987,-2.53971 12.69428,-2.54343 4.69036,-0.003 5.78813,0.1155 8.05244,0.86835 6.69975,2.22757 11.25048,6.82517 13.58752,13.72749 l 1.0145,2.99626 0.11251,22.37827 0.11251,22.37828 h -7.50716 -7.50715 v -18.69322 c 0,-17.32942 -0.052,-18.86045 -0.71336,-20.98526 -1.52642,-4.90441 -4.97325,-7.76195 -10.50733,-8.71094 -3.17418,-0.54431 -6.96555,-0.0244 -10.02012,1.37402 -2.64552,1.21116 -5.57121,4.03452 -6.89196,6.65092 -2.1439,4.24703 -2.20431,4.88839 -2.20431,23.40197 v 16.96251 h -7.49063 -7.49064 z"
       style="display:none;fill:#1eb980;fill-opacity:1;stroke-width:0.374532" />
    <path
       transform="scale(0.26458333)"
       id="path2647"
       d="m 504.22197,575.14378 c -5.98444,-1.51933 -10.01833,-5.2576 -12.02853,-11.14703 -0.78121,-2.28877 -0.80125,-2.92428 -0.91303,-28.95515 l -0.11428,-26.61501 7.13067,-4.75203 c 3.92187,-2.61361 7.21567,-4.75202 7.31956,-4.75202 0.10389,0 0.18888,3.70786 0.18888,8.2397 v 8.2397 h 8.98877 8.98876 v 5.43071 5.43071 h -9.01443 -9.01442 l 0.11929,15.63671 0.1193,15.6367 0.93633,1.87266 c 1.71793,3.43586 5.29911,4.10133 11.23595,2.08791 1.75094,-0.59382 3.23226,-1.03307 3.29182,-0.97611 0.0596,0.057 0.84217,2.48801 1.73912,5.40235 l 1.63081,5.29881 -1.55185,0.90674 c -0.85351,0.4987 -3.15297,1.44436 -5.1099,2.10146 -2.94813,0.98993 -4.26427,1.21727 -7.6779,1.32625 -2.77336,0.0885 -4.82092,-0.0465 -6.26492,-0.41306 z"
       style="display:none;fill:#72deff;fill-opacity:1;stroke-width:0.374532" />
    <path
       transform="scale(0.26458333)"
       id="path2649"
       d="m 554.29664,575.33753 c -8.55117,-1.21743 -16.27969,-5.46773 -20.6613,-11.36268 -2.09601,-2.81996 -4.28483,-7.40122 -5.22326,-10.93246 -0.54956,-2.06795 -0.69639,-3.96662 -0.69515,-8.98877 10e-4,-5.52777 0.11533,-6.76199 0.86461,-9.36329 2.54243,-8.82672 7.79176,-15.20248 15.61322,-18.96357 5.01913,-2.41355 8.09174,-3.05293 14.794,-3.0785 6.78696,-0.0259 10.51014,0.71084 15.27912,3.02339 4.21557,2.04418 8.74577,6.62208 10.85199,10.96624 0.84892,1.75094 1.88961,4.5594 2.31264,6.24104 1.20606,4.7943 1.89783,13.09299 1.28274,15.38818 l -0.22583,0.84269 h -22.99717 -22.99716 l 0.22405,1.02997 c 0.12323,0.56648 0.82994,2.294 1.57047,3.83895 2.95811,6.17143 8.98979,9.73783 16.46912,9.73783 5.07668,0 11.45299,-2.29042 14.95296,-5.37122 l 1.75093,-1.54123 3.85853,4.10934 3.85853,4.10933 -1.39134,1.44329 c -3.62324,3.75855 -9.89546,6.95144 -16.37261,8.33453 -3.2255,0.68875 -10.08175,0.96937 -13.11909,0.53694 z m 20.79699,-37.3957 c 0,-0.78659 -0.2712,-2.34557 -0.60266,-3.46442 -1.27699,-4.31041 -3.69927,-7.07731 -7.96536,-9.09861 -2.38634,-1.13067 -2.66649,-1.17536 -7.36779,-1.17536 h -4.88712 l -2.85505,1.41044 c -4.48002,2.2132 -7.35086,5.85645 -8.69143,11.02991 -0.32417,1.25098 -0.58939,2.37659 -0.58939,2.50135 0,0.12476 7.41573,0.22684 16.4794,0.22684 h 16.4794 z"
       style="display:inline;fill:#72deff;fill-opacity:1;stroke-width:0.374532" />
    <path
       transform="scale(0.26458333)"
       id="path2651"
       d="m 618.71402,575.15974 c -12.62147,-1.96199 -21.35365,-9.95403 -24.77943,-22.67915 -1.00501,-3.73314 -0.8926,-13.38322 0.20287,-17.41573 2.98303,-10.98074 10.63021,-18.60276 21.67386,-21.60257 3.81043,-1.03504 13.09041,-1.1442 17.19071,-0.20222 6.25443,1.43686 11.4329,4.18157 15.29892,8.10878 l 2.23354,2.26889 -4.48073,4.2569 -4.48073,4.2569 -1.81086,-1.62543 c -2.11284,-1.89649 -5.5049,-3.63614 -8.66108,-4.44192 -3.19651,-0.81607 -8.57257,-0.74159 -11.46568,0.15885 -7.12632,2.21796 -11.56058,8.98413 -11.57744,17.66583 -0.0256,13.20958 8.91386,20.81675 21.82093,18.56878 4.19179,-0.73007 7.59649,-2.32823 10.19442,-4.78524 l 2.05195,-1.94065 2.15834,1.78818 c 1.18709,0.98349 3.21171,2.63728 4.49916,3.67507 1.28745,1.03779 2.34083,2.02212 2.34083,2.1874 0,0.67457 -5.96626,6.20725 -7.95379,7.37579 -7.00439,4.11809 -15.89902,5.71167 -24.45579,4.38154 z"
       style="display:none;fill:#72deff;fill-opacity:1;stroke-width:0.374532" />
    <path
       transform="scale(0.26458333)"
       id="path2653"
       d="m 243.6219,621.76002 c -15.41845,-1.35333 -29.71292,-7.6433 -41.46707,-18.24669 -3.73722,-3.37133 -8.70914,-9.20664 -8.70914,-10.2215 0,-0.96705 1.29276,-2.23446 2.27915,-2.23446 0.43462,0 1.30674,0.60985 1.9663,1.37498 6.83439,7.92833 12.09476,12.45093 19.2322,16.53487 18.39791,10.52703 41.16052,11.41328 60.23022,2.34503 5.7778,-2.74753 10.65654,-5.96335 15.9176,-10.4921 0.72097,-0.62062 1.64794,-1.13288 2.05993,-1.13836 0.41198,-0.005 2.3634,0.56708 4.33649,1.27236 11.97241,4.27953 24.7893,4.04264 37.01094,-0.68405 3.28278,-1.26961 3.57903,-1.32238 4.40075,-0.78397 1.02614,0.67235 1.1966,2.43812 0.32,3.31472 -0.7867,0.7867 -6.10399,2.78718 -10.12943,3.81092 -5.7388,1.45948 -9.0612,1.78373 -16.01885,1.56335 -6.8689,-0.21757 -10.13289,-0.78144 -16.12501,-2.78566 l -3.20394,-1.07164 -2.54267,2.04692 c -13.94018,11.22221 -32.26046,16.9135 -49.55747,15.39528 z"
       style="fill:#ffffff;fill-opacity:1;fill-rule:nonzero;stroke:#ffffff;stroke-width:0.374173;stroke-miterlimit:4;stroke-dasharray:none;stroke-opacity:1" />
    <path
       transform="scale(0.26458333)"
       id="path2655"
       d="m 207.76124,506.5792 c -0.58376,-0.40888 -0.8324,-0.96494 -0.8324,-1.86159 0,-1.1302 0.3368,-1.56838 2.90262,-3.77639 5.64758,-4.85999 12.62498,-8.92628 19.38202,-11.29547 l 2.99626,-1.05056 0.0897,-1.67153 c 0.48622,-9.06462 2.99856,-19.8362 6.63574,-28.45056 6.33906,-15.01356 17.96476,-28.84718 31.89263,-37.9496 19.74066,-12.90131 43.86537,-17.03044 66.81268,-11.43549 15.62828,3.81044 30.68495,12.55791 41.48555,24.10184 l 2.96332,3.16727 3.1501,-1.33055 c 9.65928,-4.07994 19.79393,-6.72456 30.86545,-8.05431 4.89571,-0.588 16.83653,-0.58858 22.28464,-0.001 36.68646,3.95607 68.46164,26.1111 85.05479,59.30386 1.05745,2.1153 1.97673,3.90541 2.04284,3.97802 0.0661,0.0726 1.69002,-0.47515 3.60868,-1.21726 18.10887,-7.00422 38.7331,-4.46873 54.63811,6.71708 4.30749,3.0294 9.33723,7.8839 9.33723,9.01193 0,1.00995 -1.33588,2.39743 -2.30831,2.39743 -0.36791,0 -2.06367,-1.2765 -3.76832,-2.83666 -7.90394,-7.23392 -17.94547,-12.16253 -28.19303,-13.83775 -4.42337,-0.72312 -13.38764,-0.7144 -17.64757,0.0172 -4.19057,0.71964 -9.96199,2.48575 -13.70321,4.1933 -1.94251,0.88659 -3.18192,1.24319 -3.79022,1.09052 -0.73244,-0.18383 -1.54402,-1.52418 -4.2792,-7.06716 -5.24985,-10.63911 -10.555,-18.17857 -18.61473,-26.45448 -16.23478,-16.67024 -36.26386,-26.84221 -59.56807,-30.25223 -6.35436,-0.92981 -21.44873,-0.93286 -27.71535,-0.006 -9.75288,1.44312 -19.21728,4.11752 -27.36911,7.73381 -2.32589,1.03181 -4.47746,1.87602 -4.78125,1.87602 -0.30379,0 -3.22233,-2.66986 -6.48564,-5.93303 -6.35657,-6.35628 -10.21284,-9.43532 -16.52985,-13.19827 -32.71564,-19.48819 -75.56015,-12.89132 -100.87156,15.53143 -12.14262,13.63522 -19.33025,30.77499 -20.38806,48.61778 -0.14207,2.39626 -0.46311,4.57273 -0.73988,5.01592 -0.32852,0.52607 -1.69689,1.16628 -4.17115,1.95154 -7.05278,2.23837 -14.04027,6.20252 -19.56424,11.09923 -1.52537,1.35216 -3.04686,2.45847 -3.38109,2.45847 -0.33422,0 -0.98226,-0.26237 -1.44008,-0.58304 z"
       style="fill:#ffffff;fill-opacity:1;stroke:#ffffff;stroke-width:0.374532;stroke-opacity:1" />
    <path
       transform="scale(0.26458333)"
       id="path2657"
       d="m 375.33111,615.67173 c -3.24449,-0.70399 -5.98225,-3.23981 -6.92445,-6.41367 -1.0891,-3.66872 0.42572,-7.73774 3.66949,-9.85676 2.02278,-1.32141 3.53017,-1.71685 6.09218,-1.59822 2.13595,0.0989 3.85271,0.69809 5.4858,1.91463 0.53547,0.3989 0.52581,0.4762 -0.16231,1.29964 l -0.36003,0.43082 -0.94191,-0.60878 c -4.89078,-3.16106 -11.23312,-0.58809 -12.08686,4.90343 -0.46966,3.02094 1.15511,6.14201 3.92544,7.54046 1.27261,0.64241 2.03449,0.81656 3.54979,0.81137 1.54131,-0.005 2.7739,-0.29981 4.0086,-0.9579 l 0.88894,-0.4738 v -2.79889 -2.79888 h 0.83842 0.83841 v 3.27933 3.27933 l -0.8641,0.55277 c -2.32759,1.48893 -5.36006,2.05871 -7.95741,1.49512 z"
       style="fill:#ffffff;fill-opacity:1;stroke-width:0.152439" />
    <path
       transform="scale(0.26458333)"
       id="path2659"
       d="m 388.87823,606.83652 v -9.07012 h 0.99086 0.99085 v 8.15549 8.15549 h 3.96341 3.96342 v 0.91463 0.91463 h -4.95427 -4.95427 z"
       style="fill:#ffffff;fill-opacity:1;stroke-width:0.152439" />
    <path
       transform="scale(0.26458333)"
       id="path2661"
       d="m 407.19783,615.59742 c -1.86384,-0.48825 -3.0108,-1.14467 -4.38164,-2.5077 -1.89148,-1.88069 -2.65227,-3.67383 -2.65566,-6.25928 -0.005,-3.58561 1.82618,-6.49825 5.1075,-8.12519 1.35999,-0.67431 2.63262,-0.95442 4.31669,-0.95011 2.7572,0.007 4.87105,0.866 6.74637,2.74133 3.13176,3.13176 3.58538,7.67101 1.12855,11.29302 -2.19965,3.24286 -6.42849,4.81209 -10.26181,3.80793 z m 4.51255,-1.77414 c 2.60766,-0.65239 4.82085,-3.17133 5.2559,-5.98199 0.74243,-4.79655 -3.5496,-8.99276 -8.4653,-8.27629 -6.38894,0.9312 -8.68059,8.83286 -3.73665,12.88405 1.39963,1.14689 3.5533,1.82661 5.30293,1.67366 0.37728,-0.033 1.11669,-0.16772 1.64312,-0.29943 z"
       style="fill:#ffffff;fill-opacity:1;stroke-width:0.152439" />
    <path
       transform="scale(0.26458333)"
       id="path2663"
       d="m 422.41482,606.84528 v -9.09824 l 4.83994,0.0506 c 4.67995,0.0489 4.86991,0.0626 5.74686,0.4131 1.15283,0.4608 2.26889,1.49143 2.62925,2.428 0.80755,2.09881 -0.29284,4.75681 -2.22451,5.37328 -0.8628,0.27535 -0.84385,0.36602 0.13799,0.66013 1.12419,0.33674 2.24914,1.29117 2.75213,2.33495 0.49304,1.02314 0.49978,2.70856 0.0152,3.79091 -0.40196,0.89776 -1.19472,1.7199 -2.11473,2.19314 -1.38572,0.71279 -2.00219,0.78947 -7.01838,0.87302 l -4.76372,0.0793 z m 10.11255,6.85789 c 1.52415,-0.56495 2.38199,-1.90457 2.17706,-3.39971 -0.17757,-1.29547 -0.85381,-2.0475 -2.30486,-2.56317 -0.62351,-0.22158 -1.42094,-0.28279 -4.38262,-0.3364 l -3.62043,-0.0655 v 3.38336 3.38336 l 3.69665,-0.0642 c 3.06776,-0.0533 3.82212,-0.11077 4.4342,-0.33765 z m -0.43457,-8.44249 c 1.04143,-0.47194 1.41625,-0.86545 1.68485,-1.76887 0.43614,-1.46691 -0.0446,-2.73097 -1.30776,-3.43883 -0.66542,-0.37288 -0.75974,-0.38213 -4.37672,-0.42902 l -3.69665,-0.0479 v 3.0749 3.0749 l 3.46799,-0.0603 c 3.20287,-0.0557 3.52611,-0.0866 4.22829,-0.40485 z"
       style="fill:#ffffff;fill-opacity:1;stroke-width:0.152439" />
    <path
       transform="scale(0.26458333)"
       id="path2665"
       d="m 438.70964,614.26792 c 0.40205,-0.90129 2.23053,-4.98557 4.06329,-9.07617 l 3.3323,-7.43745 1.05076,0.0442 1.05076,0.0442 3.91992,8.77125 c 2.15595,4.82419 3.96494,8.8886 4.01998,9.03201 0.0883,0.23015 -0.0205,0.26076 -0.92685,0.26076 h -1.02692 l -1.01851,-2.32469 -1.0185,-2.3247 h -5.07022 -5.07022 l -0.99695,2.32069 -0.99696,2.32069 -1.02143,0.004 -1.02144,0.004 z m 12.51615,-5.03419 c 0,-0.12466 -3.85847,-8.88761 -4.04936,-9.19649 -0.14773,-0.23903 -0.16367,-0.20636 -2.34781,4.81072 -1.02034,2.34378 -1.88887,4.31596 -1.93007,4.38262 -0.0412,0.0666 1.81558,0.12119 4.12617,0.12119 2.31059,0 4.20107,-0.0531 4.20107,-0.11804 z"
       style="fill:#ffffff;fill-opacity:1;stroke-width:0.152439" />
    <path
       transform="scale(0.26458333)"
       id="path2667"
       d="m 458.84774,606.83652 v -9.07012 h 0.91464 0.91463 v 8.15549 8.15549 h 4.03964 4.03963 v 0.91463 0.91463 h -4.95427 -4.95427 z"
       style="fill:#ffffff;fill-opacity:1;stroke-width:0.152439" />
    <path
       transform="scale(0.26458333)"
       id="path2669"
       d="m 482.47579,615.80144 c -1.46602,-0.24498 -3.72029,-1.28733 -4.94303,-2.28559 l -0.40772,-0.33287 0.39136,-0.77232 c 0.21525,-0.42477 0.43178,-0.77231 0.48118,-0.77231 0.0494,0 0.33979,0.19517 0.6453,0.43371 1.69672,1.32477 3.34871,1.90135 5.43352,1.8964 2.23832,-0.005 3.499,-0.5593 4.05405,-1.78149 0.68359,-1.50523 0.0514,-2.94736 -1.6717,-3.81314 -0.38803,-0.19498 -1.63068,-0.645 -2.76144,-1.00004 -3.15633,-0.99107 -4.44414,-1.76737 -5.12904,-3.09182 -0.3469,-0.67083 -0.45066,-2.37124 -0.1998,-3.27433 0.2819,-1.01483 1.5869,-2.31262 2.77094,-2.75562 2.47107,-0.92455 5.49633,-0.70445 8.05236,0.58582 l 0.90829,0.45851 -0.40059,0.79752 c -0.22033,0.43864 -0.4197,0.81917 -0.44305,0.84562 -0.0233,0.0265 -0.46099,-0.16318 -0.97252,-0.4214 -1.3704,-0.69178 -2.71944,-0.96228 -4.43616,-0.8895 -1.62798,0.069 -2.41544,0.37113 -3.10582,1.1916 -0.31953,0.37974 -0.40027,0.63526 -0.40027,1.26669 0,1.70346 0.87922,2.45304 4.15057,3.53854 3.80157,1.26144 4.8089,1.86261 5.56467,3.32099 0.34229,0.6605 0.40757,0.98176 0.40757,2.00597 0,1.01889 -0.0655,1.3449 -0.39841,1.9817 -0.72931,1.39526 -2.00509,2.28035 -3.94659,2.738 -0.90449,0.2132 -2.74987,0.27872 -3.64367,0.12936 z"
       style="fill:#ffffff;fill-opacity:1;stroke-width:0.152439" />
    <path
       transform="scale(0.26458333)"
       id="path2671"
       d="m 494.36604,606.83652 v -9.07012 h 6.17378 6.17378 v 0.91463 0.91464 h -5.18293 -5.18293 v 3.125 3.125 h 4.57317 4.57318 v 0.83841 0.83842 h -4.57318 -4.57317 v 3.27744 3.27744 h 5.33537 5.33537 v 0.91463 0.91463 h -6.32622 -6.32622 z"
       style="fill:#ffffff;fill-opacity:1;stroke-width:0.152439" />
    <path
       transform="scale(0.26458333)"
       id="path2673"
       d="m 510.82945,606.83652 v -9.07012 l 4.15396,0.002 c 4.62651,0.003 5.45246,0.11366 7.00882,0.9432 2.16888,1.15599 3.24534,3.69245 2.71703,6.40211 -0.37815,1.93956 -1.46009,3.36363 -3.17011,4.17261 -0.53259,0.25195 -0.77352,0.44664 -0.70213,0.56737 0.0598,0.10109 1.01978,1.5043 2.13332,3.11825 l 2.02464,2.93445 -1.09953,-0.009 -1.09954,-0.009 -1.95063,-2.98125 c -1.93593,-2.95876 -1.95417,-2.98053 -2.41997,-2.88737 -0.25813,0.0516 -1.62692,0.0939 -3.04174,0.0939 h -2.57241 v 2.89634 2.89634 h -0.99086 -0.99085 z m 8.56719,1.27677 c 1.62623,-0.34505 2.75672,-1.17531 3.29518,-2.42006 0.14152,-0.32717 0.23577,-1.03624 0.24366,-1.83323 0.011,-1.10996 -0.044,-1.41018 -0.37655,-2.05652 -0.21485,-0.41756 -0.67912,-0.97779 -1.03569,-1.24975 -1.08992,-0.83132 -1.81255,-0.95806 -5.46231,-0.95806 h -3.24977 v 4.34451 4.34451 H 515.7 c 1.58886,0 3.25235,-0.0771 3.69664,-0.1714 z"
       style="fill:#ffffff;fill-opacity:1;stroke-width:0.152439" />
    <path
       transform="scale(0.26458333)"
       id="path2675"
       d="m 531.98128,611.52402 c -0.97553,-2.41044 -2.6297,-6.492 -3.67593,-9.07012 l -1.90225,-4.6875 h 1.02761 1.02761 l 3.10296,7.85839 c 1.70662,4.32212 3.14895,7.88682 3.20517,7.92157 0.0562,0.0347 1.50995,-3.48439 3.23052,-7.82029 l 3.12831,-7.88345 1.01563,-0.0452 1.01562,-0.0452 -0.2063,0.50251 c -0.11346,0.27638 -1.7792,4.36031 -3.70165,9.0754 l -3.49535,8.5729 -0.99913,0.002 -0.99914,0.002 z"
       style="fill:#ffffff;fill-opacity:1;stroke-width:0.152439" />
    <path
       transform="scale(0.26458333)"
       id="path2677"
       d="m 616.79225,606.83652 v -9.07012 l 1.02897,0.004 1.02896,0.004 5.33537,7.24811 c 2.93445,3.98646 5.42111,7.32025 5.52591,7.40843 0.15202,0.1279 0.19055,-1.3382 0.19055,-7.25164 v -7.41196 h 0.91463 0.91464 v 9.07012 9.07012 l -0.95275,-0.004 -0.95274,-0.004 -5.41159,-7.32726 c -2.97637,-4.03 -5.46303,-7.35914 -5.52591,-7.3981 -0.0629,-0.039 -0.11433,3.2602 -0.11433,7.33145 v 7.40229 h -0.99085 -0.99086 z"
       style="fill:#ffffff;fill-opacity:1;stroke-width:0.152439" />
    <path
       transform="scale(0.26458333)"
       id="path2679"
       d="m 642.78311,615.73914 c -2.93884,-0.65971 -5.28634,-2.42122 -6.5403,-4.90769 -1.79173,-3.55278 -1.1367,-7.48658 1.7209,-10.33498 1.87498,-1.86895 3.98728,-2.73007 6.6968,-2.73007 2.21286,0 4.04702,0.60343 5.84431,1.92277 l 0.74185,0.54457 -0.47005,0.59348 c -0.25853,0.32642 -0.53038,0.63077 -0.60411,0.67634 -0.0737,0.0456 -0.46316,-0.16965 -0.86539,-0.47826 -3.08667,-2.36829 -7.45872,-2.02531 -10.09404,0.79185 -2.67896,2.86382 -2.67318,7.02866 0.0137,9.90098 2.6664,2.85038 7.2556,3.15039 10.36332,0.67748 l 0.55703,-0.44325 0.55061,0.67196 0.55062,0.67195 -0.97492,0.69568 c -2.24089,1.59907 -5.13888,2.27505 -7.49036,1.74719 z"
       style="fill:#ffffff;fill-opacity:1;stroke-width:0.152439" />
    <path
       transform="scale(0.26458333)"
       id="path2681"
       d="m 589.65811,615.59486 c -1.36745,-0.35284 -3.10565,-1.19973 -3.9556,-1.92725 l -0.61686,-0.52802 0.40787,-0.71251 c 0.22433,-0.39188 0.4268,-0.73793 0.44993,-0.769 0.0231,-0.0311 0.30246,0.14523 0.62074,0.39177 0.89467,0.69304 1.54719,1.04381 2.78904,1.49928 0.95836,0.35151 1.38987,0.42 2.66768,0.42346 1.88125,0.005 3.057,-0.4 3.7842,-1.30378 0.64304,-0.79917 0.72788,-1.9042 0.21956,-2.85973 -0.5053,-0.94986 -1.53871,-1.53198 -4.23241,-2.38413 -2.77791,-0.87878 -3.74218,-1.36463 -4.59836,-2.31691 -1.56785,-1.74382 -1.39178,-4.35513 0.39999,-5.9323 0.86174,-0.75854 1.97929,-1.20575 3.56381,-1.42614 1.84699,-0.25689 4.14111,0.16069 5.97857,1.08824 l 0.9083,0.45851 -0.40059,0.79752 c -0.22033,0.43864 -0.41104,0.8105 -0.42379,0.82636 -0.0128,0.0159 -0.43324,-0.17075 -0.93441,-0.41467 -2.07068,-1.00781 -5.22131,-1.22052 -6.62177,-0.44707 -0.91327,0.50438 -1.37786,1.21767 -1.37786,2.11545 0,1.6413 0.91803,2.38012 4.3792,3.52436 1.32239,0.43718 2.80364,1.00431 3.29168,1.26031 2.10391,1.1036 2.97579,3.1655 2.30033,5.44001 -0.33522,1.12881 -1.61511,2.41088 -2.87879,2.88368 -1.87686,0.70222 -3.80251,0.80744 -5.72046,0.31256 z"
       style="fill:#ffffff;fill-opacity:1;stroke-width:0.152439" />
    <path
       transform="scale(0.26458333)"
       id="path2683"
       d="m 609.62762,606.83652 v -9.07012 h 0.99085 0.99086 v 9.07012 9.07012 h -0.99086 -0.99085 z"
       style="fill:#ffffff;fill-opacity:1;stroke-width:0.152439" />
    <path
       transform="scale(0.26458333)"
       id="path2685"
       d="m 558.16004,615.61527 c -2.8354,-0.77015 -5.13253,-2.66192 -6.24178,-5.14031 -0.41069,-0.9176 -0.82835,-2.81515 -0.82458,-3.74634 0.0127,-3.14987 2.16643,-6.55335 5.02784,-7.94554 1.72439,-0.83898 2.79909,-1.05953 4.79025,-0.98305 1.99776,0.0767 3.127,0.415 4.75525,1.42445 1.53267,0.95019 1.54174,0.96851 0.8597,1.73626 l -0.57288,0.64487 -0.60976,-0.48682 c -4.48891,-3.58391 -11.2915,-1.03865 -12.15629,4.54841 -0.67926,4.38841 2.81293,8.41018 7.30277,8.41018 1.80749,0 3.46799,-0.54264 4.80875,-1.57146 l 0.71742,-0.55051 0.55072,0.64178 0.55073,0.64177 -0.45595,0.3811 c -2.2936,1.91706 -5.77881,2.73493 -8.50219,1.99521 z"
       style="fill:#ffffff;fill-opacity:1;stroke-width:0.152439" />
    <path
       transform="scale(0.26458333)"
       id="path2687"
       d="m 570.60323,606.83652 v -9.07012 h 6.09756 6.09756 v 0.91463 0.91464 h -5.18293 -5.18292 v 3.125 3.125 h 4.64939 4.64939 v 0.83841 0.83842 h -4.64939 -4.64939 v 3.27744 3.27744 h 5.33536 5.33537 v 0.91463 0.91463 h -6.25 -6.25 z"
       style="fill:#ffffff;fill-opacity:1;stroke-width:0.152439" />
    <path
       transform="scale(0.26458333)"
       id="path2689"
       d="m 545.75567,606.83652 v -9.07012 h 0.99085 0.99085 v 9.07012 9.07012 h -0.99085 -0.99085 z"
       style="fill:#ffffff;fill-opacity:1;stroke-width:0.152439" />
    <path
       transform="scale(0.26458333)"
       id="path2693"
       d="m 300.76709,544.20945 c -6.53963,-16.95557 -11.93597,-30.95098 -11.99187,-31.10091 -0.0581,-0.15575 3.22949,-0.27261 7.66934,-0.27261 h 7.77096 l 0.89715,2.51525 c 0.49343,1.38338 4.17637,12.08275 8.18432,23.77637 4.00795,11.69362 7.35577,21.26227 7.43962,21.26365 0.0838,0.002 3.70678,-10.59508 8.05098,-23.54771 4.3442,-12.95263 7.98922,-23.65563 8.10006,-23.78444 0.11083,-0.12882 3.50477,-0.19741 7.54208,-0.15244 l 7.34056,0.0818 -11.79907,30.94512 -11.79907,30.94513 -7.75741,0.0796 -7.7574,0.0796 z"
       style="fill:#1eb980;fill-opacity:1;fill-rule:nonzero;stroke:#ffffff;stroke-width:0.114077;stroke-miterlimit:4;stroke-dasharray:none;stroke-opacity:1" />
    <path
       transform="scale(0.26458333)"
       id="path2695"
       d="m 366.46831,575.18713 c -10.2911,-2.28409 -16.31531,-9.84664 -15.76654,-19.79268 0.48477,-8.78608 5.86099,-14.5476 15.60588,-16.72432 2.42121,-0.54082 4.15865,-0.63129 14.44967,-0.75237 l 11.69754,-0.13762 -0.13268,-2.63979 c -0.15427,-3.0691 -0.81536,-4.81682 -2.54706,-6.73361 -1.54961,-1.71523 -3.22451,-2.64507 -6.08002,-3.37538 -5.89014,-1.50645 -13.12528,-0.35941 -20.52454,3.2539 -1.89761,0.92666 -3.49496,1.63682 -3.54968,1.57812 -0.0547,-0.0587 -1.23401,-2.28739 -2.62064,-4.95267 -2.95487,-5.67961 -3.21033,-4.85035 2.31796,-7.52445 6.3938,-3.09276 10.72476,-4.28039 17.89646,-4.90752 13.40119,-1.17188 23.41448,2.99283 27.61418,11.48524 2.26348,4.57708 2.46932,7.28763 2.48314,32.69817 l 0.01,18.36891 h -7.31707 -7.31707 v -3.8411 -3.84109 l -2.3187,2.16541 c -2.6655,2.48928 -5.90738,4.2404 -9.72399,5.25247 -3.1985,0.84817 -11.18269,1.08491 -14.17683,0.42038 z m 16.50685,-11.9575 c 4.35846,-1.5023 7.32227,-3.90526 8.77996,-7.11853 0.5026,-1.10791 0.61565,-2.00645 0.62113,-4.93675 l 0.007,-3.58232 -7.3933,0.005 c -12.8444,0.009 -16.42273,0.59233 -18.63368,3.03958 -1.31709,1.45787 -1.83116,3.23296 -1.63861,5.65826 0.30752,3.87352 2.60682,6.37138 7.0103,7.6157 2.64998,0.74882 8.0476,0.42206 11.2475,-0.6809 z"
       style="fill:#1eb980;fill-opacity:1;fill-rule:nonzero;stroke:#ffffff;stroke-width:0.114077;stroke-miterlimit:4;stroke-dasharray:none;stroke-opacity:1" />
    <path
       transform="scale(0.26458333)"
       id="path2697"
       d="m 421.04148,543.93349 v -31.09756 h 7.46952 7.46951 v 5.79269 c 0,3.18597 0.10289,5.78996 0.22866,5.78663 0.12576,-0.003 0.64024,-0.71944 1.14329,-1.59136 1.25654,-2.17792 4.78697,-5.6362 7.16931,-7.0228 4.10144,-2.38717 11.13596,-3.88936 16.12537,-3.44348 8.82848,0.78894 15.00549,4.70652 18.30026,11.60637 2.5939,5.43209 2.753,7.24697 2.75953,31.47866 l 0.005,19.58842 h -7.62196 -7.62195 l -0.004,-18.67379 c -0.003,-15.08304 -0.0862,-18.98393 -0.43298,-20.28677 -1.6413,-6.16581 -6.25414,-9.53676 -13.13046,-9.59542 -6.67409,-0.0569 -11.71035,2.77136 -14.53124,8.16055 -2.23019,4.26067 -2.18545,3.81346 -2.31006,23.0936 l -0.11181,17.30183 h -7.45332 -7.45333 z"
       style="fill:#1eb980;fill-opacity:1;fill-rule:nonzero;stroke:#ffffff;stroke-width:0.114077;stroke-miterlimit:4;stroke-dasharray:none;stroke-opacity:1" />
    <path
       transform="scale(0.26458333)"
       id="path2725"
       d="m 239.02929,575.06077 c -4.54174,-1.00203 -8.41363,-2.8533 -11.98539,-5.7306 -7.55485,-6.08596 -11.74353,-17.57202 -10.63407,-29.16042 1.34449,-14.04345 8.94701,-23.66058 21.28659,-26.92738 2.62823,-0.6958 3.60865,-0.79664 7.73531,-0.79564 5.62531,10e-4 8.02788,0.52205 12.447,2.69757 2.24602,1.1057 3.33914,1.89093 5.20339,3.73777 1.29802,1.28591 2.72168,2.81819 3.16368,3.40508 l 0.80364,1.06708 0.0143,-17.30183 0.0143,-17.30183 h 7.46951 7.46951 v 43.14024 43.14025 h -7.46951 -7.46951 l -0.0143,-5.10671 -0.0143,-5.10671 -0.80364,1.06707 c -0.442,0.58689 -1.85085,2.10485 -3.13078,3.37323 -1.84188,1.82527 -2.92691,2.60063 -5.20339,3.71838 -4.18985,2.05721 -5.74292,2.40272 -11.41283,2.53898 -3.96382,0.0952 -5.36373,0.0101 -7.46951,-0.45453 z m 15.1495,-12.4052 c 5.83157,-1.51893 10.51344,-6.44612 12.14082,-12.77695 1.68475,-6.554 0.22228,-14.12557 -3.63063,-18.79664 -3.15773,-3.82826 -7.21415,-5.74076 -12.68789,-5.98202 -5.57647,-0.24579 -9.60874,1.25385 -13.27296,4.93631 -3.69911,3.71752 -5.38704,8.17679 -5.38579,14.22847 0.002,9.99379 5.88944,17.5067 14.76813,18.84567 2.24973,0.33928 5.78454,0.14001 8.06832,-0.45484 z"
       style="fill:#1eb980;fill-opacity:1;fill-rule:nonzero;stroke:#ffffff;stroke-width:0.114077;stroke-miterlimit:4;stroke-dasharray:none;stroke-opacity:1" />
  </g>
</svg>
