<?xml version="1.0" encoding="UTF-8" standalone="no"?>
<svg
   xmlns:dc="http://purl.org/dc/elements/1.1/"
   xmlns:cc="http://creativecommons.org/ns#"
   xmlns:rdf="http://www.w3.org/1999/02/22-rdf-syntax-ns#"
   xmlns:svg="http://www.w3.org/2000/svg"
   xmlns="http://www.w3.org/2000/svg"
   xmlns:sodipodi="http://sodipodi.sourceforge.net/DTD/sodipodi-0.dtd"
   xmlns:inkscape="http://www.inkscape.org/namespaces/inkscape"
   inkscape:version="1.0 (4035a4f, 2020-05-01)"
   sodipodi:docname="microsoft.svg"
   id="svg488"
   enable-background="new 0 0 609 130"
   viewBox="0 0 2083.3335 401.59031"
   style="clip-rule:evenodd;fill-rule:evenodd;image-rendering:optimizeQuality;shape-rendering:geometricPrecision;text-rendering:geometricPrecision"
   version="1.1"
   height="0.40189731in"
   width="2.0833335in"
   xml:space="preserve"><metadata
   id="metadata492"><rdf:RDF><cc:Work
       rdf:about=""><dc:format>image/svg+xml</dc:format><dc:type
         rdf:resource="http://purl.org/dc/dcmitype/StillImage" /></cc:Work></rdf:RDF></metadata><sodipodi:namedview
   inkscape:current-layer="svg488"
   inkscape:window-maximized="0"
   inkscape:window-y="23"
   inkscape:window-x="0"
   inkscape:cy="6.2722951"
   inkscape:cx="95.824613"
   inkscape:zoom="5.6239738"
   showgrid="false"
   id="namedview490"
   inkscape:window-height="934"
   inkscape:window-width="1680"
   inkscape:pageshadow="2"
   inkscape:pageopacity="0"
   guidetolerance="10"
   gridtolerance="10"
   objecttolerance="10"
   borderopacity="1"
   bordercolor="#666666"
   pagecolor="#ffffff" />
 <defs
   id="defs475">
  <style
   id="style473"
   type="text/css">
   <![CDATA[
    .fil0 {fill:#737373}
   ]]>
  </style>
 </defs>
 <g
   transform="matrix(1.4201319,0,0,1.4201319,-799.53426,-96.72811)"
   id="Layer_x0020_1">
  <metadata
   id="CorelCorpID_0Corel-Layer" />
  <g
   id="_710120288">
   <g
   id="g484">
    <g
   id="g480">
     <path
   id="path478"
   d="m 717,250 -12,34 h -1 c -2,-8 -6,-20 -12,-34 L 627,87 h -64 v 260 h 42 V 187 c 0,-10 0,-22 0,-36 0,-7 -1,-12 -1,-16 h 1 c 2,10 4,17 6,22 l 78,189 h 29 l 78,-191 c 1,-4 3,-13 5,-20 h 1 c -1,19 -2,36 -2,46 v 165 h 44 V 87 h -61 z m 170,-90 h 43 v 186 h -43 z m 22,-79 c -7,0 -13,3 -19,8 -5,4 -7,10 -7,18 0,7 2,13 7,18 6,4 12,7 19,7 7,0 14,-3 18,-7 5,-5 8,-11 8,-18 0,-7 -3,-13 -8,-18 -4,-5 -10,-8 -18,-8 z m 176,77 c -8,-1 -16,-2 -24,-2 -20,0 -38,4 -53,13 -15,8 -27,20 -35,36 -8,15 -12,33 -12,53 0,18 4,34 11,48 8,14 19,26 33,34 14,7 30,11 48,11 21,0 39,-4 53,-12 h 1 v -41 l -2,2 c -6,4 -14,8 -21,11 -8,2 -15,4 -21,4 -18,0 -31,-5 -41,-16 -10,-11 -15,-26 -15,-44 0,-20 5,-35 15,-46 11,-11 24,-17 41,-17 14,0 29,5 42,15 l 2,1 v -43 h -1 c -5,-2 -12,-5 -21,-7 z m 145,-1 c -11,0 -21,3 -30,10 -7,6 -12,15 -17,25 v 0 -32 h -44 v 186 h 44 v -95 c 0,-16 3,-30 11,-39 7,-10 16,-15 28,-15 4,0 8,1 13,1 5,2 8,3 10,5 l 2,1 v -44 h -1 c -3,-2 -9,-3 -16,-3 z m 119,-1 c -31,0 -55,9 -73,27 -17,18 -26,42 -26,73 0,29 9,52 26,70 17,16 40,25 68,25 30,0 54,-9 71,-27 18,-18 26,-43 26,-72 0,-30 -8,-53 -24,-71 -16,-17 -39,-25 -68,-25 z m 35,143 c -8,10 -21,15 -37,15 -16,0 -29,-5 -38,-16 -9,-10 -13,-25 -13,-44 0,-20 5,-35 13,-46 9,-11 22,-16 38,-16 15,0 27,5 36,15 9,11 13,26 13,46 0,20 -4,36 -12,46 z m 155,-62 c -14,-6 -23,-10 -27,-14 -3,-3 -5,-8 -5,-14 0,-5 2,-10 7,-13 5,-4 11,-5 19,-5 8,0 15,1 23,3 7,2 14,5 19,9 l 2,2 v -41 l -1,-1 c -5,-2 -12,-4 -20,-5 -8,-2 -15,-2 -21,-2 -21,0 -38,5 -52,16 -13,10 -20,24 -20,41 0,8 2,16 5,22 3,7 7,13 13,18 6,5 15,10 27,15 10,4 18,8 22,10 5,3 8,6 11,9 1,2 2,6 2,10 0,12 -9,18 -28,18 -8,0 -15,-1 -25,-4 -9,-3 -17,-7 -24,-12 l -2,-2 v 43 h 1 c 7,3 14,5 24,8 9,1 18,3 25,3 23,0 41,-5 54,-16 14,-11 21,-25 21,-43 0,-12 -4,-23 -11,-32 -10,-8 -22,-16 -39,-23 z m 165,-81 c -31,0 -55,9 -72,27 -17,18 -26,42 -26,73 0,29 9,52 25,70 17,16 40,25 69,25 29,0 53,-9 70,-27 18,-18 26,-43 26,-72 0,-30 -8,-53 -24,-71 -16,-17 -39,-25 -68,-25 z m 35,143 c -9,10 -21,15 -37,15 -16,0 -29,-5 -38,-16 -9,-10 -13,-25 -13,-44 0,-20 5,-35 13,-46 9,-11 22,-16 38,-16 15,0 27,5 36,15 9,11 13,26 13,46 0,20 -4,36 -12,46 z"
   class="fil0" />
    </g>
    <path
   id="path482"
   d="m 2030,196 v -36 h -44 v -55 h -1 l -42,13 h -1 v 42 h -66 v -24 c 0,-10 3,-19 7,-24 5,-6 12,-8 21,-8 6,0 12,1 19,4 l 2,1 V 71 h -1 c -6,-2 -14,-3 -24,-3 -14,0 -25,3 -35,8 -11,5 -19,13 -24,23 -6,11 -9,22 -9,35 v 26 h -31 v 36 h 31 v 150 h 44 V 196 h 66 v 96 c 0,39 18,59 55,59 6,0 13,-1 19,-2 6,-2 11,-3 14,-5 v 0 -36 l -2,1 c -2,2 -5,3 -9,4 -3,1 -6,2 -8,2 -9,0 -15,-2 -20,-7 -4,-5 -6,-13 -6,-24 v -88 z"
   class="fil0" />
   </g>
  </g>
 </g>
</svg>
