<svg xmlns="http://www.w3.org/2000/svg" viewBox="0 0 480 480"><path fill="#1EB980" d="M208 56V40c0-22.056-17.944-40-40-40H40C17.944 0 0 17.944 0 40v64c0 22.056 17.944 40 40 40h28.184l-9.6 24H40v16h56v16h16v-16h56v-16h-18.584l-9.6-24H168c7.448 0 14.352-2.176 20.328-5.744l3.984 7.632 14.184-7.408-5.944-11.392C205.2 120.552 208 112.616 208 104V72h16V56h-16zM75.816 168l9.6-24h37.168l9.6 24H75.816zM168 128H40c-13.232 0-24-10.768-24-24h176c0 13.232-10.768 24-24 24zm24-40H16V40c0-13.232 10.768-24 24-24h128c13.232 0 24 10.768 24 24v48zM440 0H312c-22.056 0-40 17.944-40 40v16h-32v16h32v32c0 8.616 2.8 16.552 7.448 23.088l-5.944 11.392 14.184 7.408 3.984-7.632c5.976 3.56 12.88 5.744 20.328 5.744h28.184l-9.6 24H312v16h56v16h16v-16h56v-16h-18.584l-9.6-24H440c22.056 0 40-17.944 40-40V40c0-22.056-17.944-40-40-40zm-92.184 168l9.6-24h37.168l9.6 24h-56.368zM440 128H312c-13.232 0-24-10.768-24-24h176c0 13.232-10.768 24-24 24zm24-40H288V40c0-13.232 10.768-24 24-24h128c13.232 0 24 10.768 24 24v48zM208 352v-16c0-8.616-2.8-16.552-7.456-23.088l5.736-10.992-14.184-7.4-3.768 7.216c-5.976-3.56-12.88-5.744-20.328-5.744h-56v-16H96v16H40c-22.056 0-40 17.944-40 40v64C0 422.056 17.944 440 40 440h28.184l-9.6 24H40v16h128v-16h-18.584l-9.6-24H168c22.056 0 40-17.944 40-40v-32h32v-16h-32zM75.816 464l9.6-24h37.168l9.6 24H75.816zM168 424H40c-13.232 0-24-10.768-24-24h176c0 13.232-10.768 24-24 24zm24-40H16v-48c0-13.232 10.768-24 24-24h128c13.232 0 24 10.768 24 24v48zM440 296h-56v-16h-16v16h-56c-7.448 0-14.352 2.184-20.328 5.744l-3.768-7.216-14.184 7.4 5.736 10.992C274.8 319.448 272 327.384 272 336v16h-16v16h16v32c0 22.056 17.944 40 40 40h28.184l-9.6 24H312v16h128v-16h-18.584l-9.6-24H440c22.056 0 40-17.944 40-40v-64c0-22.056-17.944-40-40-40zm-92.184 168l9.6-24h37.168l9.6 24h-56.368zM440 424H312c-13.232 0-24-10.768-24-24h176c0 13.232-10.768 24-24 24zm24-40H288v-48c0-13.232 10.768-24 24-24h128c13.232 0 24 10.768 24 24v48zM214.4783 188.4883l14.1856-7.4 7.4 14.1856-14.1856 7.4zM258.9167 273.5946l14.1856-7.4 7.4 14.1856-14.1856 7.4zM244.111 245.2482l14.184-7.4032 7.4032 14.184-14.184 7.4032zM249.024 220l1.664-3.184-4.568-2.384-2.616-5.024L240 211.24l-3.504-1.832-2.616 5.024-4.568 2.384 1.664 3.184-1.88 3.592 5.16 2.696 2.456 4.712 3.288-1.712 3.288 1.712 2.456-4.712 5.16-2.696zM199.6921 160.1227l14.184-7.4032 7.4032 14.184-14.184 7.4032zM199.4994 280.278l7.4-14.1856 14.1856 7.4-7.4 14.1856zM214.2615 251.9841l7.4052-14.1849 14.185 7.4053-7.4053 14.1849zM243.8827 195.2221l7.3984-14.1872 14.1872 7.3984-7.3984 14.1872zM258.6763 166.825l7.4053-14.1848 14.184 7.4048-7.4053 14.1849zM96 248h16v16H96zM96 216h16v16H96zM368 248h16v16h-16zM368 216h16v16h-16z"/></svg>