<svg xmlns="http://www.w3.org/2000/svg" width="512" height="512" viewBox="0 0 60 58"><path fill="#1EB980" d="M30 26c-.146 0-.291-.032-.426-.095l-17-8C12.224 17.74 12 17.387 12 17s.224-.74.574-.905l17-8c.27-.127.582-.127.852 0l17 8c.35.165.574.518.574.905s-.224.74-.574.905l-17 8c-.135.063-.28.095-.426.095zm-14.651-9L30 23.895 44.651 17 30 10.105z"/><path fill="#1EB980" d="M30 34c-.153 0-.307-.035-.447-.105l-12-6A1.001 1.001 0 0117 27v-7.647c0-.342.175-.661.464-.844.289-.184.652-.205.961-.061L30 23.895l11.574-5.447c.31-.145.673-.123.961.061.29.183.465.502.465.844V27c0 .379-.214.725-.553.895l-12 6c-.14.07-.294.105-.447.105zm-11-7.618l11 5.5 11-5.5v-5.453l-10.574 4.976c-.27.127-.582.127-.852 0L19 20.929zM47 18H30c-.552 0-1-.448-1-1s.448-1 1-1h17c.552 0 1 .448 1 1s-.448 1-1 1z"/><path fill="#1EB980" d="M47 27c-.552 0-1-.448-1-1v-9c0-.552.448-1 1-1s1 .448 1 1v9c0 .552-.448 1-1 1zM30 20c-.552 0-1-.448-1-1v-4c0-.552.448-1 1-1s1 .448 1 1v4c0 .552-.448 1-1 1z"/><path fill="#1EB980" d="M44.999 30c-.19 0-.383-.054-.554-.168-.459-.306-.583-.927-.277-1.387l2-3a.998.998 0 011.387-.277c.459.306.583.927.277 1.387l-2 3a.9994.9994 0 01-.833.445z"/><path fill="#1EB980" d="M49.001 30c-.323 0-.64-.156-.833-.445l-2-3c-.306-.459-.182-1.081.277-1.387.459-.308 1.08-.183 1.387.277l2 3c.306.459.182 1.081-.277 1.387a.9959.9959 0 01-.554.168zM30 29c-.552 0-1-.448-1-1v-3c0-.552.448-1 1-1s1 .448 1 1v3c0 .552-.448 1-1 1z"/><path fill="#1EB980" d="M59 38H1c-.552 0-1-.448-1-1V4.001C0 1.795 1.795 0 4.001 0h51.998C58.205 0 60 1.795 60 4.001V37c0 .552-.448 1-1 1zM2 36h56V4.001C58 2.897 57.103 2 55.999 2H4.001C2.897 2 2 2.897 2 4.001z"/><path fill="#1EB980" d="M55.999 46H4.001C1.795 46 0 44.205 0 41.999V37c0-.552.448-1 1-1h58c.552 0 1 .448 1 1v4.999C60 44.205 58.205 46 55.999 46zM2 38v3.999C2 43.103 2.897 44 4.001 44h51.998C57.103 44 58 43.103 58 41.999V38z"/><path fill="#1EB980" d="M33 42h-6c-.552 0-1-.448-1-1s.448-1 1-1h6c.552 0 1 .448 1 1s-.448 1-1 1zM55 38H5c-.552 0-1-.448-1-1V5c0-.552.448-1 1-1h50c.552 0 1 .448 1 1v32c0 .552-.448 1-1 1zM6 36h48V6H6zM43 58H17c-1.654 0-3-1.346-3-3s1.346-3 3-3h26c1.654 0 3 1.346 3 3s-1.346 3-3 3zm-26-4c-.551 0-1 .449-1 1s.449 1 1 1h26c.551 0 1-.449 1-1s-.449-1-1-1z"/><path fill="#1EB980" d="M41 54H19c-.552 0-1-.448-1-1s.448-1 1-1c3.318 0 5-2.355 5-7 0-.552.448-1 1-1h10c.552 0 1 .448 1 1 0 4.645 1.682 7 5 7 .552 0 1 .448 1 1s-.448 1-1 1zm-17.129-2H36.13c-1.232-1.364-1.957-3.395-2.102-6h-8.055c-.146 2.605-.87 4.636-2.102 6z"/></svg>