<?xml version="1.0" encoding="UTF-8" standalone="no"?>
<svg
   xmlns:dc="http://purl.org/dc/elements/1.1/"
   xmlns:cc="http://creativecommons.org/ns#"
   xmlns:rdf="http://www.w3.org/1999/02/22-rdf-syntax-ns#"
   xmlns:svg="http://www.w3.org/2000/svg"
   xmlns="http://www.w3.org/2000/svg"
   xmlns:xlink="http://www.w3.org/1999/xlink"
   xmlns:sodipodi="http://sodipodi.sourceforge.net/DTD/sodipodi-0.dtd"
   xmlns:inkscape="http://www.inkscape.org/namespaces/inkscape"
   version="1.1"
   id="svg2"
   sodipodi:docname="vmware.svg"
   inkscape:version="1.0 (4035a4f, 2020-05-01)"
   x="0px"
   y="0px"
   width="200.00002"
   height="31.643461"
   viewBox="0 0 200.00001 31.643461"
   enable-background="new 0 0 190.25 31"
   xml:space="preserve"><metadata
   id="metadata383"><rdf:RDF><cc:Work
       rdf:about=""><dc:format>image/svg+xml</dc:format><dc:type
         rdf:resource="http://purl.org/dc/dcmitype/StillImage" /></cc:Work></rdf:RDF></metadata>
<defs
   id="defs352">
	
	
		<inkscape:perspective
   id="perspective10"
   inkscape:vp_z="0.99999997 : 1.1434612 : 1"
   sodipodi:type="inkscape:persp3d"
   inkscape:vp_x="0 : 1.1434612 : 1"
   inkscape:vp_y="0 : 999.99999 : 0"
   inkscape:persp3d-origin="0.49999999 : 0.97679452 : 1">
		</inkscape:perspective>
</defs>
<sodipodi:namedview
   id="namedview4"
   pagecolor="#ffffff"
   bordercolor="#666666"
   borderopacity="1"
   objecttolerance="10"
   gridtolerance="10"
   guidetolerance="10"
   inkscape:pageopacity="0"
   inkscape:pageshadow="2"
   inkscape:window-width="1680"
   inkscape:window-height="935"
   showgrid="false"
   inkscape:zoom="3.3825042"
   inkscape:cx="90.913371"
   inkscape:cy="41.310267"
   inkscape:window-x="0"
   inkscape:window-y="23"
   inkscape:window-maximized="0"
   inkscape:current-layer="g166"
   inkscape:document-rotation="0">
	</sodipodi:namedview>
<g
   id="g12"
   transform="matrix(1.25,0,0,-1.25,-366.59257,370.58672)"
   inkscape:groupmode="layer"
   inkscape:label="VMW_10Q1_LGO_GUIDE_USLET_EN_R1">
	<g
   id="g164"
   transform="matrix(1.3999475,0,0,1.3999475,-150.86056,-113.5099)">
		<g
   id="g378">
			<g
   id="g376">
				<defs
   id="defs356">
					<rect
   id="SVGID_1_"
   x="-193.841"
   y="-199.548"
   width="956.25"
   height="1237.498" />
				</defs>
				<clipPath
   id="SVGID_2_">
					<use
   xlink:href="#SVGID_1_"
   overflow="visible"
   id="use358"
   x="0"
   y="0"
   width="100%"
   height="100%" />
				</clipPath>
				<g
   id="g166"
   clip-path="url(#SVGID_2_)">
					<g
   id="g172"
   transform="matrix(0.79108654,0,0,0.79108654,385.43401,257.74095)">
						<path
   id="path174"
   fill="#696566"
   d="m -21.716,23.2 -6.571,18.298 c -0.084,0.253 -0.209,0.587 -0.209,0.88 0,0.793 0.67,1.546 1.63,1.546 0.838,0 1.384,-0.544 1.634,-1.337 l 5.445,-15.767 5.484,15.811 c 0.25,0.75 0.753,1.294 1.586,1.294 h 0.17 c 0.881,0 1.425,-0.544 1.675,-1.294 L -5.433,26.82 0.098,42.67 c 0.209,0.673 0.666,1.255 1.548,1.255 0.92,0 1.591,-0.708 1.591,-1.505 0,-0.292 -0.127,-0.625 -0.209,-0.88 L -3.585,23.2 C -3.923,22.242 -4.59,21.739 -5.345,21.739 H -5.47 c -0.838,0 -1.467,0.503 -1.762,1.461 L -12.629,38.749 -18.073,23.2 c -0.293,-0.958 -0.923,-1.461 -1.758,-1.461 h -0.088 c -0.793,0 -1.46,0.503 -1.797,1.461" />
					</g>
					<g
   id="g176"
   transform="matrix(0.79108654,0,0,0.79108654,423.32706,272.87365)">
						<path
   id="path178"
   fill="#696566"
   d="m -21.717,23.2 c 0,0.883 0.712,1.637 1.591,1.637 0.927,0 1.637,-0.713 1.637,-1.637 v -3.713 c 1.592,3.606 5.123,5.308 7.463,5.308 0.969,0 1.598,-0.712 1.598,-1.634 0,-0.882 -0.584,-1.508 -1.43,-1.634 -4.195,-0.503 -7.63,-3.65 -7.63,-9.9 V 4.274 c 0,-0.881 -0.67,-1.634 -1.592,-1.634 -0.923,0 -1.636,0.716 -1.636,1.634 z" />
					</g>
					<g
   id="g180"
   transform="matrix(0.79108654,0,0,0.79108654,441.24438,256.44753)">
						<path
   id="path182"
   fill="#696566"
   d="m -21.716,23.2 c -5.837,0 -10.603,4.527 -10.603,11.166 v 0.086 c 0,6.183 4.316,11.164 10.192,11.164 6.283,0 9.861,-5.184 9.861,-10.873 0,-0.874 -0.705,-1.499 -1.481,-1.499 h -15.362 c 0.448,-4.645 3.692,-7.259 7.477,-7.259 2.631,0 4.556,1.038 6.12,2.491 0.247,0.205 0.534,0.371 0.906,0.371 0.778,0 1.397,-0.623 1.397,-1.373 0,-0.372 -0.164,-0.747 -0.497,-1.034 -2.011,-1.949 -4.397,-3.24 -8.01,-3.24 m 6.286,12.411 c -0.33,3.905 -2.55,7.305 -6.783,7.305 -3.698,0 -6.492,-3.111 -6.898,-7.305 z" />
					</g>
					<g
   id="g184"
   transform="matrix(0.79108654,0,0,0.79108654,405.21988,261.76363)">
						<path
   id="path186"
   fill="#696566"
   d="m -21.717,23.2 v 0.084 c 0,4.556 3.764,6.984 9.239,6.984 2.761,0 4.725,-0.376 6.652,-0.923 v 0.756 c 0,3.885 -2.39,5.895 -6.441,5.895 -2.175,0 -3.441,-0.277 -5.033,-0.986 -0.206,-0.084 -0.417,-0.127 -0.58,-0.127 -0.753,0 -1.425,0.629 -1.425,1.38 0,0.667 0.291,1.08 0.88,1.341 2.129,0.924 3.734,1.231 6.492,1.231 3.05,0 5.392,-0.792 6.978,-2.382 1.466,-1.463 2.219,-3.553 2.219,-6.314 V 18.211 c 0,-0.917 -0.669,-1.588 -1.552,-1.588 -0.916,0 -1.537,0.67 -1.537,1.505 v 2.062 c -1.508,-1.969 -4.019,-3.722 -7.816,-3.722 -4.016,0.003 -8.076,2.3 -8.076,6.732 m 15.932,1.673 v 2.091 c -1.592,0.459 -3.727,0.92 -6.359,0.92 -4.05,0 -6.311,-1.758 -6.311,-4.473 v -0.083 c 0,-2.717 2.506,-4.306 5.436,-4.306 3.97,0 7.234,2.426 7.234,5.851" />
					</g>
					<g
   id="g188"
   transform="matrix(0.79108654,0,0,0.79108654,339.10007,273.06192)">
						<path
   id="path190"
   fill="#696566"
   d="m -21.716,23.2 c -0.708,1.552 -2.458,2.255 -4.092,1.529 -1.636,-0.727 -2.238,-2.541 -1.499,-4.094 l 6.861,-14.913 c 1.079,-2.337 2.216,-3.562 4.35,-3.562 2.28,0 3.274,1.334 4.352,3.562 0,0 5.984,13.03 6.044,13.166 0.061,0.138 0.253,0.559 0.862,0.555 0.515,-0.003 0.948,-0.414 0.948,-0.966 V 5.735 c 0,-1.964 1.089,-3.575 3.185,-3.575 2.094,0 3.226,1.611 3.226,3.575 v 10.427 c 0,2.011 1.441,3.316 3.405,3.316 1.964,0 3.271,-1.352 3.271,-3.316 V 5.735 c 0,-1.964 1.093,-3.575 3.185,-3.575 2.094,0 3.232,1.611 3.232,3.575 v 10.427 c 0,2.011 1.435,3.316 3.4,3.316 1.961,0 3.273,-1.352 3.273,-3.316 V 5.735 c 0,-1.964 1.092,-3.575 3.186,-3.575 2.093,0 3.229,1.611 3.229,3.575 v 11.867 c 0,4.361 -3.507,7.416 -7.727,7.416 -4.215,0 -6.855,-2.916 -6.855,-2.916 -1.403,1.819 -3.337,2.912 -6.61,2.912 -3.454,0 -6.477,-2.912 -6.477,-2.912 -1.404,1.819 -3.794,2.912 -5.773,2.912 -3.061,0 -5.492,-1.346 -6.975,-4.737 L -16.096,9.95 Z" />
					</g>
					<g
   id="g192"
   transform="translate(468.609,268.931)">
						
					</g>
					
				</g>
			</g>
		</g>
	</g>
</g>
</svg>
